<svg width="471" height="487" viewBox="0 0 471 487" fill="none" xmlns="http://www.w3.org/2000/svg">
<path d="M430.217 310.97C429.663 310.635 429.033 310.448 428.386 310.426C427.739 310.405 427.098 310.55 426.523 310.847C425.954 311.148 425.407 311.505 424.837 311.773C424.239 312.023 423.682 312.361 423.186 312.778C422.712 313.224 422.362 313.786 422.17 314.407C422.02 315.036 421.952 315.681 421.969 316.327L421.846 320.189L406.087 319.642L406.187 319.742L406.377 314.675C406.357 313.783 406.025 312.926 405.439 312.253C404.12 311.15 402.655 310.234 401.087 309.53C400.217 309.284 399.289 309.351 398.464 309.72L393.999 312.075L394.345 312.175L386.99 298.224L386.845 298.737L391.309 296.348C392.12 295.85 392.732 295.084 393.039 294.183C393.194 293.738 393.277 293.271 393.285 292.799V291.549V290.288C393.319 289.815 393.273 289.34 393.151 288.882C392.9 287.948 392.331 287.131 391.544 286.571L387.236 283.87L387.392 284.551L395.74 271.158L394.993 271.325L399.334 274.026C400.201 274.495 401.205 274.641 402.169 274.439C402.645 274.345 403.101 274.171 403.52 273.926L404.636 273.301L405.752 272.743C406.43 272.431 407.015 271.948 407.449 271.341C407.884 270.734 408.153 270.025 408.23 269.283L408.375 264.182L407.85 264.673L423.61 265.108L423.174 264.64L423.063 269.74C423.103 270.686 423.461 271.59 424.078 272.307C424.402 272.655 424.779 272.949 425.195 273.178L426.311 273.825L427.427 274.473C427.811 274.734 428.238 274.926 428.688 275.042C429.594 275.27 430.55 275.183 431.4 274.796L435.865 272.352L435.463 272.229L443.019 286.08L443.097 285.835L438.633 288.279C437.888 288.752 437.331 289.471 437.059 290.31C436.86 291.147 436.781 292.007 436.824 292.866C436.741 293.715 436.775 294.571 436.925 295.411C437.154 296.25 437.667 296.983 438.376 297.487L442.695 300.154V300.076L434.425 313.47L430.217 310.97ZM430.217 310.97L434.324 313.525L442.684 300.132L438.387 297.442C437.715 296.953 437.23 296.248 437.014 295.444C436.875 294.618 436.852 293.777 436.947 292.944C436.919 292.111 437.005 291.277 437.204 290.467C437.443 289.674 437.948 288.989 438.633 288.525L443.097 286.158L443.253 286.08L443.175 285.924L435.82 271.961L435.686 271.694L435.418 271.839L430.954 274.182C430.252 274.496 429.464 274.559 428.721 274.361C428.354 274.261 428.007 274.098 427.695 273.881L426.579 273.189L425.462 272.508C425.136 272.318 424.843 272.076 424.592 271.794C424.099 271.212 423.82 270.48 423.799 269.718L424.123 264.673V264.227H423.665L407.884 263.702H407.381V264.216L407.214 269.249C407.142 269.979 406.818 270.662 406.299 271.18C406.039 271.433 405.741 271.643 405.417 271.805L404.301 272.374L403.185 273.011C402.876 273.199 402.535 273.331 402.18 273.401C401.468 273.538 400.731 273.423 400.093 273.077L395.785 270.443L395.327 270.153L395.048 270.611L386.767 284.004L386.51 284.428L386.934 284.685L391.22 287.341C391.829 287.764 392.268 288.389 392.459 289.105C392.557 289.469 392.598 289.845 392.582 290.221V291.505V292.777C392.584 293.156 392.524 293.533 392.403 293.893C392.165 294.607 391.693 295.221 391.064 295.634L386.599 298.056L386.265 298.235L386.443 298.57L393.999 312.409L394.122 312.644L394.345 312.521L398.81 310.099C399.545 309.766 400.372 309.695 401.153 309.898C401.946 310.164 402.698 310.54 403.386 311.014C404.119 311.395 404.798 311.872 405.406 312.432C405.962 313.045 406.279 313.837 406.299 314.664L406.187 319.731V319.832H406.288L421.891 320.233L422.002 316.372C421.972 315.73 422.032 315.088 422.181 314.463C422.371 313.852 422.713 313.299 423.174 312.856C423.661 312.438 424.211 312.099 424.804 311.851C425.384 311.572 425.92 311.215 426.489 310.914C427.061 310.596 427.706 310.434 428.361 310.444C429.015 310.454 429.655 310.635 430.217 310.97Z" fill="#EBEBEB"/>
<path d="M426.969 287.61C426.049 285.187 424.436 283.09 422.332 281.578C420.228 280.065 417.725 279.206 415.136 279.106C412.547 279.006 409.986 279.67 407.771 281.015C405.557 282.361 403.787 284.328 402.683 286.672C401.932 288.27 401.51 290.003 401.441 291.768C401.373 293.533 401.659 295.293 402.284 296.945C402.909 298.597 403.858 300.106 405.077 301.384C406.296 302.662 407.759 303.683 409.379 304.385C410.982 305.074 412.705 305.441 414.45 305.464C416.195 305.487 417.927 305.166 419.547 304.519C422.771 303.227 425.352 300.711 426.724 297.521C428.114 294.379 428.202 290.816 426.969 287.61ZM426.969 287.61C427.552 289.196 427.817 290.882 427.748 292.572C427.679 294.261 427.278 295.92 426.567 297.454C425.511 299.699 423.817 301.584 421.697 302.873C419.576 304.161 417.123 304.797 414.644 304.701C412.164 304.604 409.768 303.78 407.754 302.33C405.74 300.881 404.197 298.87 403.319 296.55C402.158 293.459 402.25 290.037 403.576 287.014C404.902 283.99 407.357 281.605 410.417 280.366C413.553 279.116 417.057 279.16 420.161 280.489C423.273 281.882 425.717 284.438 426.969 287.61Z" fill="#EBEBEB"/>
<path d="M54.5555 204.303L60.0691 194.738L63.0045 196.434C63.4267 196.673 63.9068 196.79 64.3915 196.772C64.8762 196.755 65.3465 196.603 65.7501 196.334C66.216 196.035 66.6965 195.759 67.1899 195.508C67.6238 195.291 67.9891 194.959 68.2452 194.547C68.5013 194.135 68.6383 193.66 68.6409 193.175V189.827H79.6904V193.175C79.6929 193.66 79.8299 194.135 80.086 194.547C80.3422 194.959 80.7075 195.291 81.1413 195.508C81.6311 195.759 82.1079 196.035 82.57 196.334C82.9753 196.604 83.4475 196.756 83.9341 196.774C84.4208 196.792 84.9029 196.674 85.3268 196.434L88.251 194.738L93.7534 204.303L90.8069 205.999C90.3895 206.247 90.0488 206.606 89.8223 207.035C89.5958 207.464 89.4923 207.948 89.5233 208.433C89.5233 208.712 89.5233 208.979 89.5233 209.247C89.5233 209.515 89.5233 209.794 89.5233 210.062C89.4936 210.546 89.5975 211.029 89.8239 211.459C90.0503 211.888 90.3903 212.246 90.8069 212.495L93.7534 214.192L88.2286 223.768L85.2933 222.071C84.8704 221.83 84.3889 221.711 83.9023 221.726C83.4156 221.742 82.9429 221.892 82.5365 222.161C82.0808 222.464 81.6075 222.74 81.119 222.987C80.6867 223.205 80.3229 223.539 80.067 223.95C79.8111 224.361 79.6731 224.835 79.6681 225.319V228.668H68.6185V225.319C68.6135 224.835 68.4755 224.361 68.2196 223.95C67.9638 223.539 67.5998 223.205 67.1676 222.987C66.6755 222.74 66.1985 222.464 65.739 222.161C65.3326 221.892 64.8598 221.742 64.3732 221.726C63.8865 221.711 63.405 221.83 62.9821 222.071L60.0468 223.768L54.5332 214.192L57.4685 212.495C57.885 212.249 58.2254 211.893 58.4519 211.465C58.6784 211.038 58.7823 210.556 58.7521 210.073C58.7521 209.794 58.7521 209.526 58.7521 209.247C58.7521 208.968 58.7521 208.712 58.7521 208.433C58.7833 207.947 58.6787 207.462 58.4501 207.032C58.2214 206.602 57.8777 206.245 57.4574 205.999L54.5555 204.303ZM65.1139 209.247C65.1139 211.038 65.6451 212.788 66.6402 214.277C67.6353 215.766 69.0496 216.926 70.7043 217.611C72.3589 218.296 74.1795 218.474 75.9356 218.124C77.6918 217.774 79.3046 216.911 80.5701 215.644C81.8355 214.377 82.6967 212.763 83.0447 211.006C83.3927 209.25 83.2119 207.429 82.5251 205.776C81.8383 204.122 80.6763 202.709 79.1863 201.716C77.6963 200.722 75.9452 200.193 74.1545 200.196C71.7557 200.199 69.4563 201.154 67.7612 202.851C66.0661 204.548 65.1139 206.849 65.1139 209.247Z" fill="#EBEBEB"/>
<path d="M431.568 343.014L437.148 333.437L440.017 335.134C440.441 335.374 440.923 335.491 441.409 335.473C441.896 335.456 442.368 335.303 442.773 335.033C443.231 334.743 443.711 334.464 444.202 334.207C444.636 333.991 445.001 333.658 445.257 333.246C445.513 332.834 445.65 332.36 445.653 331.875V328.526H456.714V331.875C456.716 332.36 456.853 332.834 457.109 333.246C457.365 333.658 457.731 333.991 458.165 334.207C458.656 334.464 459.136 334.743 459.593 335.033C459.999 335.303 460.471 335.456 460.957 335.473C461.444 335.491 461.926 335.374 462.35 335.134L465.274 333.437L470.855 343.014L467.908 344.699C467.473 344.937 467.114 345.292 466.871 345.724C466.629 346.156 466.512 346.648 466.535 347.143C466.535 347.411 466.535 347.679 466.535 347.958C466.535 348.237 466.535 348.494 466.535 348.762C466.503 349.245 466.605 349.728 466.83 350.157C467.054 350.586 467.393 350.945 467.808 351.195L470.766 352.902L465.185 362.467L462.339 360.804C461.915 360.565 461.433 360.447 460.946 360.465C460.46 360.483 459.987 360.635 459.582 360.905C459.125 361.206 458.645 361.474 458.165 361.731C457.729 361.945 457.362 362.278 457.106 362.69C456.85 363.102 456.714 363.578 456.714 364.063V367.412H445.653V364.063C445.66 363.573 445.529 363.091 445.274 362.673C445.02 362.254 444.652 361.916 444.213 361.697C443.733 361.441 443.253 361.173 442.796 360.871C442.39 360.601 441.918 360.449 441.432 360.431C440.945 360.414 440.463 360.531 440.039 360.771L437.104 362.467L431.523 352.902L434.47 351.206C434.887 350.958 435.227 350.6 435.451 350.17C435.676 349.74 435.777 349.256 435.742 348.773C435.742 348.505 435.742 348.226 435.742 347.958C435.742 347.69 435.742 347.411 435.742 347.143C435.774 346.657 435.671 346.172 435.444 345.74C435.218 345.309 434.877 344.949 434.458 344.699L431.568 343.014ZM442.137 347.958C442.139 349.748 442.672 351.498 443.669 352.985C444.665 354.472 446.08 355.631 447.735 356.314C449.39 356.997 451.21 357.174 452.966 356.822C454.721 356.471 456.333 355.607 457.597 354.339C458.862 353.072 459.722 351.458 460.069 349.702C460.416 347.945 460.234 346.126 459.547 344.473C458.86 342.819 457.698 341.407 456.208 340.414C454.719 339.422 452.968 338.893 451.178 338.895C449.989 338.895 448.811 339.13 447.713 339.585C446.615 340.041 445.617 340.709 444.777 341.551C443.937 342.393 443.272 343.392 442.819 344.491C442.366 345.591 442.134 346.769 442.137 347.958Z" fill="#EBEBEB"/>
<path d="M368.463 104.098L466.245 103.953C466.245 103.953 461.379 97.6245 456.011 96.8432C456.011 96.8432 445.541 65.8264 428.108 65.592C411.846 65.4804 405.395 84.7892 405.395 84.7892C405.395 84.7892 397.861 76.1505 390.684 80.1127C383.508 84.0749 379.479 95.4146 379.479 95.4146C379.479 95.4146 371.387 99.7786 368.463 104.098Z" fill="#EBEBEB"/>
<path d="M128.353 67.657L4.69877 67.8467C4.69877 67.8467 4.69877 59.9446 21.7195 58.3821C21.7195 58.3821 37.2223 23.7825 60.9732 28.4256C75.8176 31.294 83.4071 51.6407 83.4071 51.6407C83.4071 51.6407 94.5683 35.6468 103.497 38.7273C112.426 41.8078 117.772 58.8173 117.772 58.8173C117.772 58.8173 127.003 63.1925 128.353 67.657Z" fill="#EBEBEB"/>
<path d="M338.316 31.082L254.24 31.2159C254.24 31.2159 262.164 23.8161 265.691 23.8161C269.218 23.8161 279.464 -1.00632 292.623 0.0316693C305.782 1.06966 312.78 19.519 312.78 19.519C312.78 19.519 328.762 14.4853 338.316 31.082Z" fill="#EBEBEB"/>
<path d="M143.242 132.682L71.3419 132.793C71.3419 132.793 74.9135 128.128 78.8533 127.548C78.8533 127.548 86.4764 104.712 99.3117 104.533C111.243 104.366 116.053 118.541 116.053 118.541C116.053 118.541 121.567 112.168 126.857 115.07C132.148 117.971 135.139 126.298 135.139 126.298C135.139 126.298 141.088 129.49 143.242 132.682Z" fill="#EBEBEB"/>
<path d="M407.995 330.413L383.653 326.305L362.581 304.854L324.901 344.029L298.828 327.835L280.446 342.779L244.429 303.213L216.08 300.59L185.699 255.622L152.673 288.704L133.175 258.524L121.009 256.783L104.825 226.793L73.217 279.105L29.0189 451.009H464.884L407.995 330.413Z" fill="#DBDBDB"/>
<path d="M403.665 387.937L404.346 387.055L367.681 358.461L314.197 353.885L314.108 353.907L266.918 366.407L225.633 330.58L225.477 330.547L167.629 322.243L124.536 293.246L104.557 247.664L103.531 248.122L123.643 293.994L123.777 294.083L167.216 323.314L167.35 323.325L225.154 331.629L266.639 367.646L266.918 367.568L314.298 355.012L367.257 359.554L403.665 387.937Z" fill="white"/>
<path d="M402.035 387.278C402.035 388.276 402.331 389.252 402.886 390.081C403.44 390.911 404.228 391.557 405.15 391.939C406.071 392.321 407.086 392.421 408.064 392.226C409.043 392.032 409.942 391.551 410.647 390.846C411.353 390.14 411.833 389.241 412.028 388.263C412.223 387.284 412.123 386.27 411.741 385.348C411.359 384.426 410.713 383.638 409.883 383.084C409.053 382.53 408.078 382.234 407.08 382.234C405.742 382.234 404.459 382.765 403.513 383.711C402.567 384.657 402.035 385.94 402.035 387.278Z" fill="#DBDBDB"/>
<path d="M407.08 392.881C408.184 392.881 409.263 392.554 410.18 391.941C411.098 391.328 411.813 390.456 412.236 389.436C412.658 388.417 412.769 387.295 412.553 386.212C412.338 385.13 411.807 384.135 411.026 383.355C410.246 382.574 409.251 382.043 408.169 381.827C407.086 381.612 405.964 381.723 404.944 382.145C403.925 382.567 403.053 383.283 402.44 384.2C401.827 385.118 401.5 386.197 401.5 387.301C401.5 388.781 402.087 390.2 403.134 391.247C404.181 392.293 405.6 392.881 407.08 392.881ZM407.08 382.836C407.963 382.836 408.826 383.098 409.56 383.589C410.295 384.079 410.867 384.777 411.205 385.592C411.543 386.408 411.631 387.306 411.459 388.172C411.286 389.038 410.861 389.833 410.237 390.458C409.613 391.082 408.817 391.507 407.951 391.679C407.085 391.852 406.187 391.763 405.372 391.425C404.556 391.088 403.859 390.515 403.368 389.781C402.877 389.047 402.616 388.184 402.616 387.301C402.61 386.711 402.721 386.125 402.943 385.579C403.164 385.032 403.492 384.534 403.907 384.115C404.322 383.696 404.817 383.363 405.361 383.136C405.906 382.909 406.49 382.792 407.08 382.792V382.836Z" fill="white"/>
<path d="M362.659 359.007C362.659 360.005 362.955 360.98 363.509 361.81C364.063 362.64 364.851 363.286 365.773 363.668C366.695 364.05 367.709 364.15 368.688 363.955C369.666 363.76 370.565 363.28 371.271 362.574C371.976 361.869 372.457 360.97 372.651 359.991C372.846 359.013 372.746 357.998 372.364 357.077C371.983 356.155 371.336 355.367 370.506 354.813C369.677 354.258 368.701 353.962 367.704 353.962C366.367 353.965 365.085 354.498 364.14 355.443C363.194 356.389 362.662 357.67 362.659 359.007Z" fill="#DBDBDB"/>
<path d="M367.704 364.61C368.807 364.61 369.886 364.283 370.804 363.67C371.722 363.057 372.437 362.185 372.859 361.165C373.282 360.146 373.392 359.024 373.177 357.941C372.962 356.859 372.43 355.864 371.65 355.084C370.869 354.303 369.875 353.772 368.792 353.556C367.71 353.341 366.588 353.452 365.568 353.874C364.548 354.296 363.677 355.012 363.064 355.929C362.45 356.847 362.123 357.926 362.123 359.03C362.123 360.51 362.711 361.929 363.758 362.976C364.804 364.022 366.224 364.61 367.704 364.61ZM367.704 354.565C368.587 354.565 369.45 354.827 370.184 355.318C370.918 355.808 371.49 356.506 371.828 357.321C372.166 358.137 372.255 359.035 372.082 359.901C371.91 360.767 371.485 361.562 370.86 362.187C370.236 362.811 369.441 363.236 368.575 363.408C367.709 363.581 366.811 363.492 365.995 363.154C365.179 362.817 364.482 362.244 363.992 361.51C363.501 360.776 363.239 359.913 363.239 359.03C363.233 358.44 363.344 357.854 363.566 357.308C363.788 356.761 364.116 356.263 364.531 355.844C364.946 355.425 365.44 355.092 365.985 354.865C366.529 354.638 367.114 354.521 367.704 354.521V354.565Z" fill="white"/>
<path d="M309.164 353.684C309.164 354.682 309.46 355.658 310.014 356.487C310.569 357.317 311.358 357.964 312.28 358.345C313.203 358.727 314.218 358.826 315.197 358.631C316.176 358.435 317.074 357.953 317.78 357.247C318.485 356.54 318.964 355.64 319.158 354.661C319.351 353.682 319.249 352.667 318.866 351.745C318.482 350.824 317.834 350.036 317.003 349.483C316.172 348.93 315.195 348.636 314.197 348.639C313.535 348.639 312.88 348.769 312.268 349.023C311.657 349.277 311.101 349.648 310.634 350.117C310.166 350.586 309.796 351.142 309.543 351.754C309.291 352.366 309.162 353.022 309.164 353.684Z" fill="#DBDBDB"/>
<path d="M314.242 359.286C315.345 359.286 316.424 358.959 317.342 358.346C318.26 357.733 318.975 356.861 319.397 355.841C319.82 354.822 319.93 353.7 319.715 352.617C319.5 351.535 318.968 350.54 318.188 349.76C317.407 348.979 316.413 348.448 315.33 348.232C314.248 348.017 313.126 348.128 312.106 348.55C311.086 348.972 310.215 349.688 309.602 350.605C308.988 351.523 308.661 352.602 308.661 353.706C308.661 355.186 309.249 356.605 310.296 357.652C311.342 358.698 312.762 359.286 314.242 359.286ZM314.242 349.241C315.125 349.241 315.988 349.503 316.722 349.994C317.456 350.484 318.028 351.182 318.366 351.997C318.704 352.813 318.793 353.711 318.62 354.577C318.448 355.443 318.023 356.238 317.399 356.863C316.774 357.487 315.979 357.912 315.113 358.084C314.247 358.257 313.349 358.168 312.533 357.83C311.717 357.493 311.02 356.92 310.53 356.186C310.039 355.452 309.777 354.589 309.777 353.706C309.771 353.116 309.882 352.53 310.104 351.984C310.326 351.437 310.654 350.939 311.069 350.52C311.484 350.101 311.978 349.768 312.523 349.541C313.067 349.314 313.652 349.197 314.242 349.197V349.241Z" fill="white"/>
<path d="M267.008 372.189C264.222 372.189 261.963 369.93 261.963 367.144C261.963 364.358 264.222 362.099 267.008 362.099C269.794 362.099 272.053 364.358 272.053 367.144C272.053 369.93 269.794 372.189 267.008 372.189Z" fill="#DBDBDB"/>
<path d="M267.008 372.747C268.112 372.747 269.19 372.419 270.108 371.806C271.026 371.193 271.741 370.321 272.164 369.302C272.586 368.282 272.696 367.16 272.481 366.077C272.266 364.995 271.734 364 270.954 363.22C270.173 362.439 269.179 361.908 268.097 361.693C267.014 361.477 265.892 361.588 264.872 362.01C263.853 362.433 262.981 363.148 262.368 364.066C261.755 364.983 261.427 366.062 261.427 367.166C261.427 368.646 262.015 370.066 263.062 371.112C264.108 372.159 265.528 372.747 267.008 372.747ZM267.008 362.702C267.891 362.702 268.754 362.963 269.488 363.454C270.222 363.945 270.795 364.642 271.132 365.458C271.47 366.273 271.559 367.171 271.386 368.037C271.214 368.903 270.789 369.699 270.165 370.323C269.54 370.947 268.745 371.372 267.879 371.545C267.013 371.717 266.115 371.629 265.299 371.291C264.484 370.953 263.786 370.38 263.296 369.646C262.805 368.912 262.543 368.049 262.543 367.166C262.537 366.576 262.649 365.991 262.87 365.444C263.092 364.897 263.42 364.4 263.835 363.98C264.25 363.561 264.744 363.228 265.289 363.001C265.834 362.774 266.418 362.657 267.008 362.657V362.702Z" fill="white"/>
<path d="M220.354 331.674C220.354 332.672 220.65 333.647 221.204 334.476C221.759 335.306 222.547 335.953 223.468 336.335C224.39 336.716 225.405 336.816 226.383 336.622C227.362 336.427 228.261 335.947 228.966 335.241C229.672 334.535 230.152 333.637 230.347 332.658C230.542 331.679 230.442 330.665 230.06 329.743C229.678 328.821 229.031 328.033 228.202 327.479C227.372 326.925 226.397 326.629 225.399 326.629C224.061 326.629 222.778 327.16 221.832 328.107C220.886 329.053 220.354 330.336 220.354 331.674Z" fill="#DBDBDB"/>
<path d="M225.399 337.276C226.503 337.276 227.582 336.949 228.499 336.336C229.417 335.723 230.132 334.851 230.555 333.831C230.977 332.812 231.088 331.69 230.872 330.607C230.657 329.525 230.126 328.53 229.345 327.75C228.565 326.969 227.57 326.438 226.488 326.222C225.405 326.007 224.283 326.118 223.263 326.54C222.244 326.962 221.372 327.678 220.759 328.595C220.146 329.513 219.818 330.592 219.818 331.696C219.818 333.176 220.406 334.595 221.453 335.642C222.5 336.688 223.919 337.276 225.399 337.276ZM225.399 327.231C226.282 327.231 227.145 327.493 227.879 327.984C228.614 328.474 229.186 329.172 229.524 329.987C229.862 330.803 229.95 331.701 229.778 332.567C229.605 333.433 229.18 334.228 228.556 334.853C227.932 335.477 227.136 335.902 226.27 336.074C225.404 336.247 224.506 336.158 223.691 335.82C222.875 335.483 222.178 334.91 221.687 334.176C221.196 333.442 220.935 332.579 220.935 331.696C220.929 331.106 221.04 330.52 221.262 329.974C221.483 329.427 221.811 328.929 222.226 328.51C222.641 328.091 223.136 327.758 223.68 327.531C224.225 327.304 224.809 327.187 225.399 327.187V327.231Z" fill="white"/>
<path d="M162.383 322.343C162.388 323.34 162.688 324.314 163.245 325.141C163.803 325.968 164.593 326.611 165.516 326.989C166.438 327.367 167.453 327.463 168.43 327.265C169.407 327.067 170.304 326.584 171.007 325.876C171.71 325.169 172.187 324.269 172.379 323.29C172.571 322.311 172.468 321.298 172.084 320.377C171.699 319.457 171.051 318.671 170.22 318.119C169.39 317.567 168.414 317.274 167.417 317.276C166.754 317.277 166.097 317.41 165.485 317.665C164.872 317.921 164.317 318.295 163.849 318.765C163.381 319.236 163.011 319.794 162.76 320.408C162.508 321.022 162.38 321.68 162.383 322.343Z" fill="#DBDBDB"/>
<path d="M167.417 327.946C168.521 327.946 169.6 327.619 170.517 327.005C171.435 326.392 172.15 325.521 172.573 324.501C172.995 323.481 173.106 322.359 172.89 321.277C172.675 320.194 172.143 319.2 171.363 318.419C170.583 317.639 169.588 317.107 168.506 316.892C167.423 316.677 166.301 316.787 165.281 317.209C164.262 317.632 163.39 318.347 162.777 319.265C162.164 320.183 161.836 321.262 161.836 322.365C161.836 323.845 162.424 325.265 163.471 326.311C164.518 327.358 165.937 327.946 167.417 327.946ZM167.417 317.901C168.3 317.901 169.163 318.163 169.897 318.653C170.631 319.144 171.204 319.841 171.542 320.657C171.88 321.473 171.968 322.37 171.796 323.236C171.623 324.102 171.198 324.898 170.574 325.522C169.949 326.146 169.154 326.572 168.288 326.744C167.422 326.916 166.524 326.828 165.709 326.49C164.893 326.152 164.196 325.58 163.705 324.846C163.214 324.111 162.953 323.248 162.953 322.365C162.948 321.776 163.06 321.192 163.283 320.646C163.505 320.101 163.833 319.605 164.248 319.187C164.663 318.769 165.157 318.437 165.701 318.21C166.245 317.984 166.828 317.867 167.417 317.867V317.901Z" fill="white"/>
<path d="M119.011 293.748C119.011 294.746 119.307 295.722 119.862 296.552C120.417 297.382 121.206 298.029 122.128 298.41C123.05 298.792 124.065 298.891 125.044 298.695C126.023 298.5 126.922 298.018 127.627 297.312C128.332 296.605 128.812 295.705 129.005 294.726C129.199 293.746 129.097 292.732 128.714 291.81C128.33 290.888 127.682 290.101 126.851 289.548C126.02 288.995 125.043 288.701 124.045 288.703C123.383 288.703 122.727 288.834 122.116 289.088C121.505 289.341 120.949 289.713 120.482 290.182C120.014 290.65 119.643 291.207 119.391 291.819C119.139 292.431 119.01 293.086 119.011 293.748Z" fill="#DBDBDB"/>
<path d="M124.045 299.351C125.148 299.351 126.227 299.024 127.145 298.411C128.063 297.797 128.778 296.926 129.2 295.906C129.623 294.886 129.733 293.764 129.518 292.682C129.303 291.599 128.771 290.605 127.991 289.824C127.21 289.044 126.216 288.513 125.133 288.297C124.051 288.082 122.929 288.192 121.909 288.615C120.889 289.037 120.018 289.752 119.405 290.67C118.791 291.588 118.464 292.667 118.464 293.771C118.464 295.251 119.052 296.67 120.099 297.717C121.145 298.763 122.565 299.351 124.045 299.351ZM124.045 289.306C124.928 289.306 125.791 289.568 126.525 290.058C127.259 290.549 127.831 291.246 128.169 292.062C128.507 292.878 128.596 293.775 128.423 294.641C128.251 295.508 127.826 296.303 127.202 296.927C126.577 297.552 125.782 297.977 124.916 298.149C124.05 298.321 123.152 298.233 122.336 297.895C121.52 297.557 120.823 296.985 120.333 296.251C119.842 295.517 119.58 294.654 119.58 293.771C119.574 293.18 119.685 292.595 119.907 292.048C120.129 291.502 120.457 291.004 120.872 290.585C121.287 290.165 121.781 289.833 122.326 289.605C122.87 289.378 123.455 289.261 124.045 289.261V289.306Z" fill="white"/>
<path d="M98.7648 247.91C98.7648 248.907 99.0607 249.883 99.615 250.712C100.169 251.542 100.957 252.189 101.879 252.57C102.801 252.952 103.815 253.052 104.794 252.857C105.772 252.663 106.671 252.182 107.377 251.477C108.082 250.771 108.563 249.872 108.758 248.894C108.952 247.915 108.852 246.901 108.47 245.979C108.089 245.057 107.442 244.269 106.612 243.715C105.783 243.161 104.807 242.865 103.81 242.865C103.147 242.863 102.49 242.993 101.877 243.246C101.265 243.499 100.708 243.87 100.239 244.339C99.7704 244.808 99.3989 245.365 99.1459 245.977C98.8928 246.59 98.7633 247.247 98.7648 247.91Z" fill="#DBDBDB"/>
<path d="M103.798 253.501C104.902 253.501 105.981 253.174 106.899 252.56C107.817 251.947 108.532 251.076 108.954 250.056C109.377 249.036 109.487 247.914 109.272 246.832C109.056 245.749 108.525 244.755 107.745 243.974C106.964 243.194 105.97 242.662 104.887 242.447C103.805 242.232 102.683 242.342 101.663 242.765C100.643 243.187 99.7716 243.902 99.1584 244.82C98.5452 245.738 98.2179 246.817 98.2179 247.92C98.2179 249.4 98.8059 250.82 99.8524 251.866C100.899 252.913 102.318 253.501 103.798 253.501ZM103.798 243.456C104.681 243.456 105.545 243.718 106.279 244.208C107.013 244.699 107.585 245.396 107.923 246.212C108.261 247.028 108.349 247.925 108.177 248.791C108.005 249.657 107.58 250.453 106.955 251.077C106.331 251.702 105.535 252.127 104.669 252.299C103.803 252.471 102.906 252.383 102.09 252.045C101.274 251.707 100.577 251.135 100.086 250.401C99.5959 249.667 99.334 248.803 99.334 247.92C99.3296 247.331 99.4418 246.747 99.6642 246.202C99.8866 245.656 100.215 245.16 100.63 244.742C101.045 244.324 101.538 243.992 102.082 243.765C102.626 243.539 103.209 243.422 103.798 243.422V243.456Z" fill="white"/>
<path d="M310.48 486.791C223.979 486.791 153.856 480.49 153.856 472.717C153.856 464.944 223.979 458.643 310.48 458.643C396.982 458.643 467.105 464.944 467.105 472.717C467.105 480.49 396.982 486.791 310.48 486.791Z" fill="#EBEBEB"/>
<path d="M157.573 307.488H208.747V451.042H157.573V307.488Z" fill="#F31E1E"/>
<g opacity="0.1">
<path opacity="0.1" d="M157.573 307.488H169.292V451.042H157.573V307.488Z" fill="black"/>
</g>
<path d="M90.1484 253.233H141.322V451.042H90.1484V253.233Z" fill="#F31E1E"/>
<g opacity="0.1">
<path opacity="0.1" d="M90.1596 253.233H101.879V451.042H90.1596V253.233Z" fill="black"/>
</g>
<path d="M224.841 339.81H276.015V451.031H224.841V339.81Z" fill="#F31E1E"/>
<g opacity="0.1">
<path opacity="0.1" d="M224.841 339.81H236.56V451.031H224.841V339.81Z" fill="black"/>
</g>
<path d="M22.7352 180.976H73.9091V451.031H22.7352V180.976Z" fill="#F31E1E"/>
<g opacity="0.1">
<path opacity="0.1" d="M22.7352 180.976H34.4543V451.031H22.7352V180.976Z" fill="black"/>
</g>
<path d="M294.141 407.915V380.236C294.141 380.236 107.75 364.376 32.4565 157.895L24.9674 159.826C24.9674 159.826 74.9805 371.463 294.141 407.915Z" fill="#37474F"/>
<path d="M17.9806 166.768L41.5306 158.977L22.021 139.523L17.9806 166.768Z" fill="#37474F"/>
<path d="M471 451.042L412.125 450.763L353.25 450.674L235.5 450.484L117.75 450.663L58.875 450.763L-3.05176e-05 451.042L58.875 451.31L117.75 451.41L235.5 451.6L353.25 451.41L412.125 451.31L471 451.042Z" fill="#263238"/>
<path d="M183.701 69.4985C180.353 88.4724 191.514 109.098 215.89 116.744C238.045 123.697 263.113 112.168 268.626 97.5688C274.464 82.0994 264.519 67.2663 252.052 65.9827C240.043 64.6992 230.489 71.3178 221.604 67.7239C217.352 65.9939 212.586 59.9111 206.414 57.0538C199.528 53.8729 185.833 57.3329 183.701 69.4985Z" fill="#263238"/>
<path d="M259.552 110.56C253.297 115.448 245.898 118.66 238.056 119.891C230.209 121.097 222.191 120.486 214.618 118.105C206.967 115.848 200.063 111.577 194.628 105.739C189.309 99.8348 185.691 92.5984 184.159 84.8005C186.009 92.4247 189.774 99.4508 195.097 105.214C197.784 108.038 200.84 110.486 204.182 112.491C207.53 114.478 211.11 116.045 214.841 117.157C218.571 118.293 222.408 119.042 226.292 119.389C234.098 120.078 241.956 118.931 249.239 116.041C252.902 114.672 256.369 112.83 259.552 110.56Z" fill="#263238"/>
<path d="M255.389 65.648C253.067 64.9217 250.645 64.5676 248.213 64.5988C245.799 64.6053 243.394 64.8937 241.047 65.4582C238.681 66.0386 236.292 66.5743 233.882 66.9985C231.451 67.4615 228.976 67.6413 226.504 67.5342C225.256 67.4689 224.016 67.2933 222.799 67.0096C221.586 66.6657 220.423 66.1668 219.339 65.5252C217.262 64.2208 215.268 62.7894 213.367 61.2393C211.471 59.7445 209.394 58.4957 207.184 57.5226C204.942 56.5823 202.549 56.0567 200.119 55.9712C202.579 55.873 205.035 56.252 207.352 57.0874C209.641 57.9961 211.805 59.1925 213.792 60.6478C215.801 62.0429 217.698 63.5831 219.774 64.7662C220.793 65.3724 221.889 65.8379 223.033 66.1502C224.192 66.4117 225.373 66.5649 226.56 66.6078C231.348 66.9092 236.125 65.6926 240.891 64.7662C243.302 64.2723 245.764 64.0662 248.224 64.1524C250.679 64.2439 253.102 64.7495 255.389 65.648Z" fill="#263238"/>
<path d="M427.807 104.712C425.452 99.2541 352.402 96.5755 290.301 95.783H290.19C262.164 95.437 235.243 92.8588 218.279 93.7405C207.497 94.3097 201.727 98.205 200.421 99.7452C196.258 104.745 188.635 120.784 217.341 141.041C239.061 156.366 263.983 170.06 282.5 193.499C301.016 216.937 311.407 246.481 310.09 266.615C308.773 286.75 294.152 305.97 295.581 303.882C296.027 303.235 301.462 303.559 309.052 299.161C318.372 293.759 329.198 282.33 336.52 278.971C351.487 272.118 371.722 273.279 387.526 257.251C404.279 240.42 408.353 210.676 416.311 187.126C425.954 158.52 448.176 151.845 427.807 104.712Z" fill="#F31E1E"/>
<g opacity="0.2">
<path opacity="0.2" d="M427.807 104.712C425.452 99.2541 352.402 96.5755 290.301 95.783H290.19C262.164 95.437 235.243 92.8588 218.279 93.7405C207.497 94.3097 201.727 98.205 200.421 99.7452C196.258 104.745 188.635 120.784 217.341 141.041C239.061 156.366 263.983 170.06 282.5 193.499C301.016 216.937 311.407 246.481 310.09 266.615C308.773 286.75 294.152 305.97 295.581 303.882C296.027 303.235 301.462 303.559 309.052 299.161C318.372 293.759 329.198 282.33 336.52 278.971C351.487 272.118 371.722 273.279 387.526 257.251C404.279 240.42 408.353 210.676 416.311 187.126C425.954 158.52 448.176 151.845 427.807 104.712Z" fill="black"/>
</g>
<path opacity="0.1" d="M412.962 197.785C414.022 194.146 415.094 190.563 416.31 187.126C418.673 180.498 421.73 174.138 425.429 168.152C425.429 168.152 359.947 151.857 340.85 159.792C330.37 164.123 361.052 166.857 412.962 197.785Z" fill="black"/>
<path opacity="0.1" d="M325.024 287.208C329.298 283.692 333.327 280.511 336.62 279.027C340.465 277.359 344.445 276.022 348.518 275.031C344.31 247.831 339.589 229.047 327.814 216.591C320.325 208.6 339.232 254.461 325.024 287.208Z" fill="black"/>
<path opacity="0.1" d="M407.292 218.098C408.263 214.817 409.19 211.502 410.116 208.187C388.988 199.66 371.052 187.338 370.907 190.217C370.684 193.387 393.441 209.013 407.292 218.098Z" fill="black"/>
<path d="M447.238 164.368C447.238 164.368 453.276 137.582 434.871 105.214C433.086 102.067 401.924 88.7628 381.097 87.0105C360.27 85.2582 344.433 91.4749 319.711 95.0576C294.989 98.6404 229.183 90.6825 213.267 94.0755C202.329 96.4081 200.566 99.8011 200.566 99.8011C200.566 99.8011 213.345 95.7608 221.024 95.8836C251.416 96.3747 305.369 112.48 319.521 112.268C336.799 112.011 356.04 110.449 370.059 113.82C385.729 117.492 438.064 154.491 447.238 164.368Z" fill="#F31E1E"/>
<path d="M276.216 366.005C277.879 364.164 304.777 302.387 304.297 299.362C304.141 298.246 246.494 280.511 246.494 280.511L230.69 320.624L267.153 328.504C267.153 328.504 267.443 356.764 268.269 360.012C269.095 363.26 274.564 367.847 276.216 366.005Z" fill="#EB9481"/>
<path d="M276.216 366.006C276.941 365.191 282.544 352.813 288.56 338.929C288.951 338.013 289.353 337.087 289.743 336.161C290.781 333.794 291.797 331.395 292.813 329.017C293.203 328.091 293.583 327.165 293.929 326.25C294.308 325.334 294.699 324.408 295.045 323.515C295.636 322.131 296.161 320.769 296.741 319.441C297.098 318.571 297.444 317.711 297.79 316.885L298.784 314.43C299.275 313.225 299.732 312.075 300.168 310.97C300.469 310.233 300.759 309.497 301.027 308.794C301.563 307.432 302.043 306.182 302.445 305.066C302.668 304.508 302.858 303.95 303.025 303.492C303.46 302.264 303.784 301.26 303.962 300.59C304.089 300.231 304.153 299.854 304.152 299.474C304.152 299.072 297.355 296.315 288.527 292.844C287.277 299.407 284.631 311.249 279.598 328.951C271.383 358.048 267.644 346.63 267.22 340.871C267.22 340.815 267.22 340.759 267.22 340.703C267.22 341.049 267.22 341.406 267.22 341.752V341.83C267.22 342.467 267.22 343.114 267.276 343.75C267.332 344.386 267.276 345.156 267.276 345.86C267.276 346.976 267.332 348.181 267.387 349.308C267.443 350.436 267.454 351.541 267.51 352.534C267.51 353.148 267.51 353.739 267.588 354.297C267.588 354.588 267.588 354.856 267.588 355.135C267.588 355.414 267.588 355.86 267.655 356.251C267.655 357.01 267.745 357.69 267.812 358.271C267.801 358.405 267.801 358.539 267.812 358.673C267.857 359.141 267.927 359.607 268.024 360.068C269.173 363.238 274.564 367.836 276.216 366.006Z" fill="#263238"/>
<path d="M254.63 331.942L270.334 285.389C270.334 285.389 210.778 262.318 209.762 258.401C209.361 256.872 248.369 199.805 255.624 177.773C260.445 163.107 248.525 146.901 248.525 146.901L205.588 158.419C205.588 158.419 207.82 170.697 206.381 173.141C192.798 195.675 154.749 257.887 158.321 279.507C161.736 300.199 254.63 331.942 254.63 331.942Z" fill="#263238"/>
<path d="M245.333 325.926C247.03 320.524 254.262 298.681 256.304 293.279C256.885 291.717 257.421 290.154 258.068 288.614C258.615 287.051 259.248 285.519 259.965 284.027C259.975 284.008 259.991 283.993 260.011 283.985C260.031 283.977 260.053 283.976 260.073 283.983C260.093 283.99 260.11 284.003 260.121 284.022C260.132 284.04 260.136 284.062 260.133 284.083C259.812 285.521 259.413 286.94 258.939 288.335C258.526 289.752 258.079 291.159 257.633 292.565C256.762 295.344 255.858 298.146 254.954 300.88C253.168 306.282 247.275 323.202 245.791 326.093C245.668 326.327 245.244 326.205 245.333 325.926Z" fill="#37474F"/>
<path d="M203.133 259.595C208.267 253.401 244.797 189.28 246.661 185.53C248.592 182.115 250.063 178.459 251.036 174.659C252.8 166.299 250.166 157.594 246.572 150.104C246.558 150.06 246.559 150.012 246.576 149.968C246.594 149.925 246.626 149.889 246.667 149.867C246.707 149.844 246.755 149.837 246.801 149.845C246.847 149.854 246.888 149.879 246.918 149.915C250.512 156.433 253.023 163.844 252.498 171.366C252.179 175.198 251.13 178.934 249.407 182.371C247.643 186.133 245.69 189.816 243.826 193.532C239.965 201.189 206.816 256.314 204.081 259.807C210.477 263.245 216.883 266.671 223.39 269.852C230.087 273.201 236.918 276.315 243.759 279.384C247.621 281.11 251.505 282.799 255.412 284.451C255.579 284.518 255.501 284.786 255.333 284.719C241.303 279.457 227.616 273.326 214.35 266.359C210.6 264.394 206.849 262.397 203.189 260.276C203.137 260.237 203.094 260.188 203.063 260.131C203.032 260.075 203.013 260.012 203.008 259.948C203.003 259.884 203.011 259.819 203.033 259.758C203.054 259.697 203.088 259.642 203.133 259.595Z" fill="#37474F"/>
<path d="M215.533 248.59C226.582 230.989 250.132 194.403 255.624 177.773C260.445 163.107 248.525 146.901 248.525 146.901L231.996 151.366L215.533 248.59Z" fill="#37474F"/>
<path d="M321.441 407.447C323.773 406.576 376.13 364.119 377.068 361.228C377.459 360.112 371.711 352.154 364.5 342.701L364.266 342.411C362.782 340.457 334.131 309.798 334.131 309.798L300.447 338.326L330.202 369.432L330.682 369.99C330.682 369.99 317.925 395.203 317.2 398.484C316.474 401.766 319.209 408.317 321.441 407.447Z" fill="#EB9481"/>
<path d="M368.117 347.411C373.563 354.699 377.447 360.324 377.124 361.24C376.13 364.153 323.829 406.565 321.441 407.447C319.052 408.328 316.463 401.754 317.188 398.518C317.624 396.52 322.535 386.374 326.307 378.751C323.919 384.12 322.077 395.002 343.049 374.108C356.118 361.184 363.853 352.467 368.117 347.411Z" fill="#263238"/>
<path d="M205.588 158.419C205.588 158.419 215.566 181.59 223.703 186.836C223.703 186.836 253.302 259.595 262.7 278.714C275.1 303.961 318.093 362.077 318.093 362.077L359.054 330.948C359.054 330.948 305.157 264.205 304.465 262.53C300.547 253.01 269.553 182.907 269.664 181.054C270.781 162.08 257.387 144.535 257.387 144.535L205.588 158.419Z" fill="#263238"/>
<path d="M223.926 186.88C224.339 187.397 224.65 187.988 224.841 188.621C225.098 189.202 225.343 189.737 225.589 190.374C226.08 191.49 226.582 192.717 227.062 193.901C228.056 196.345 229.071 198.778 230.087 201.222C231.103 203.667 232.118 206.111 233.089 208.566C234.06 211.022 235.02 213.354 235.779 215.81C235.779 215.899 235.667 215.955 235.623 215.81C234.306 213.578 233.19 211.133 232.096 208.745C231.002 206.356 229.942 203.923 228.937 201.49C227.933 199.057 226.939 196.59 225.968 194.135C225.511 193.019 225.087 191.836 224.651 190.686C224.428 190.095 224.216 189.492 224.004 188.889C223.709 188.297 223.535 187.652 223.491 186.992C223.502 186.947 223.525 186.907 223.558 186.874C223.59 186.842 223.631 186.819 223.675 186.808C223.72 186.796 223.766 186.797 223.811 186.81C223.855 186.822 223.894 186.847 223.926 186.88Z" fill="#37474F"/>
<path d="M206.012 161.879C209.305 167.281 212.452 172.761 216.057 177.974C216.816 179.09 217.609 180.652 218.825 181.322C219.072 181.467 219.354 181.544 219.64 181.544C219.927 181.544 220.208 181.467 220.455 181.322C221.147 180.842 220.801 179.882 220.511 179.279C219.819 177.84 218.948 176.467 218.178 175.061C217.408 173.654 216.56 172.081 215.745 170.596C213.937 167.248 212.33 163.899 210.51 160.551C210.454 160.451 210.6 160.361 210.655 160.462C212.542 163.721 214.618 166.868 216.515 170.127L219.439 175.116L220.801 177.505C221.243 178.178 221.596 178.906 221.85 179.67C221.955 179.951 222 180.252 221.982 180.552C221.965 180.851 221.884 181.144 221.747 181.411C221.609 181.678 221.417 181.913 221.183 182.102C220.949 182.29 220.678 182.428 220.388 182.505C219.773 182.61 219.141 182.541 218.564 182.307C217.986 182.072 217.485 181.681 217.118 181.177C216.092 179.883 215.149 178.526 214.294 177.114C213.323 175.63 212.363 174.134 211.459 172.65C209.368 169.203 207.525 165.611 205.945 161.902C205.912 161.868 205.979 161.823 206.012 161.879Z" fill="#37474F"/>
<path d="M220.633 181.824C221.448 182.505 224.551 186.579 224.741 186.802C224.93 187.025 224.294 187.304 224.205 187.215C222.767 185.546 221.444 183.783 220.243 181.936C220.22 181.869 220.566 181.757 220.633 181.824Z" fill="#37474F"/>
<path d="M217.285 185.407C220.071 185.61 222.835 186.054 225.544 186.735C226.895 187.025 228.234 187.327 229.574 187.673C231.01 187.966 232.423 188.362 233.804 188.856C233.821 188.862 233.835 188.874 233.846 188.889C233.856 188.904 233.862 188.921 233.862 188.94C233.862 188.958 233.856 188.976 233.846 188.991C233.835 189.005 233.821 189.017 233.804 189.023C232.349 188.941 230.902 188.758 229.473 188.476C228.156 188.287 226.85 188.063 225.544 187.807C222.731 187.384 219.96 186.716 217.263 185.809C217.21 185.806 217.16 185.782 217.124 185.742C217.088 185.702 217.07 185.65 217.073 185.597C217.076 185.544 217.1 185.494 217.14 185.458C217.18 185.422 217.232 185.404 217.285 185.407Z" fill="#37474F"/>
<path d="M314.744 351.786C319.209 348.293 337.546 334.408 342.301 331.116C343.663 330.167 345.024 329.196 346.397 328.27C347.735 327.295 349.125 326.393 350.56 325.569C350.579 325.559 350.601 325.557 350.622 325.562C350.642 325.568 350.66 325.581 350.673 325.598C350.685 325.616 350.69 325.637 350.688 325.658C350.686 325.679 350.676 325.699 350.661 325.714C349.598 326.717 348.48 327.66 347.312 328.537C346.196 329.464 344.991 330.368 343.83 331.283C341.598 333.08 339.22 334.843 336.91 336.607C332.368 340.045 317.936 350.681 315.068 352.177C314.744 352.299 314.487 351.965 314.744 351.786Z" fill="#37474F"/>
<path d="M252.097 148.452C255.551 153.048 258.141 158.233 259.742 163.754C260.517 166.474 261.055 169.256 261.349 172.069C261.684 175.228 261.472 178.476 262.465 181.534C263.601 184.659 264.894 187.725 266.338 190.72L270.434 200.095L278.504 218.712L294.755 256.09C296.049 259.093 297.322 262.106 298.828 265.019C300.304 267.835 302.006 270.527 303.918 273.067C307.902 278.457 312.166 283.647 316.273 288.938C324.566 299.574 332.903 310.144 341.006 320.948L344.064 325.033C344.131 325.122 344.064 325.245 343.942 325.156C335.381 314.686 327.021 304.061 318.651 293.424C314.461 288.112 310.291 282.784 306.139 277.442C304.264 275.031 302.4 272.598 300.737 270.031C299.002 267.312 297.476 264.465 296.172 261.515C290.591 249.238 285.368 236.726 279.977 224.337C274.586 211.948 269.14 199.414 263.76 186.936C262.38 184.211 261.427 181.29 260.936 178.275C260.613 175.183 260.601 172.092 260.066 169.011C259.033 163.186 257.03 157.576 254.139 152.415C253.425 151.131 252.644 149.881 251.829 148.664C251.695 148.486 251.974 148.285 252.097 148.452Z" fill="#37474F"/>
<path d="M345.897 186.849L363.574 236.381L281.813 265.559L264.136 216.027L345.897 186.849Z" fill="#455A64"/>
<path d="M345.894 186.841L354.218 210.167L272.457 239.345L264.133 216.019L345.894 186.841Z" fill="#37474F"/>
<path d="M353.475 201.972L267.845 232.53L259.596 209.415L345.225 178.856L353.475 201.972Z" fill="#455A64"/>
<path d="M315.738 174.525L320.448 187.706L314.242 189.916L311.563 182.416L287.913 190.865L290.591 198.365L284.386 200.575L279.687 187.383L315.738 174.525Z" fill="#263238"/>
<path d="M287.14 231.859L281.558 233.851L277.62 222.814L283.201 220.822L287.14 231.859Z" fill="#263238"/>
<path d="M343.698 211.697L338.116 213.689L334.178 202.652L339.759 200.66L343.698 211.697Z" fill="#263238"/>
<path d="M207.508 112.246C193.412 135.159 175.554 156.154 167.328 156.31C156.256 156.522 132.728 145.149 121.032 138.05C117.605 135.985 134.269 109.612 137.941 111.822C142.405 114.489 165.096 128.686 165.609 128.809C166.725 129.077 192.262 111.643 198.267 107.324C208.3 100.125 213.758 102.078 207.508 112.246Z" fill="#EB9481"/>
<path d="M104.055 126.577C108.285 131.722 121.076 138.854 124.815 139.39C128.554 139.926 141.412 118.608 140.017 114.98C138.621 111.353 123.007 95.1471 116.355 93.7742C109.703 92.4014 99.6691 121.242 104.055 126.577Z" fill="#EB9481"/>
<path d="M126.121 97.9481C126.634 101.442 122.226 100.046 122.226 100.046C122.226 100.046 128.085 103.596 127.215 107.402C126.344 111.208 121.098 109.187 120.719 109.053C121.031 109.243 126.3 112.647 125.072 116.375C123.844 120.103 118.788 117.491 118.464 117.279C118.699 117.547 121.746 121.186 120.139 123.808C117.371 128.273 109.335 119.221 105.06 119.143C105.06 119.143 104.089 126.364 104.022 126.576C104.022 126.576 96.2091 118.083 96.6221 112.324C96.6709 111.485 97.0054 110.689 97.57 110.068C98.1346 109.446 98.8952 109.037 99.7249 108.908C99.7249 108.908 96.9011 106.442 97.8052 103.473C98.2739 101.955 101.154 101.341 101.154 101.341C100.545 100.751 100.11 100.004 99.8978 99.1831C99.6852 98.3622 99.7026 97.4986 99.9481 96.6869C100.718 94.6109 103.453 94.3319 103.453 94.3319C103.453 94.3319 102.281 91.3742 103.754 89.5103C106.712 85.749 125.005 90.4701 126.121 97.9481Z" fill="#EB9481"/>
<path d="M103.888 94.2206C103.821 94.2206 103.821 94.1201 103.888 94.1201C110.555 94.179 117.047 96.2613 122.505 100.091C122.672 100.225 122.505 100.549 122.326 100.448C116.516 97.4858 110.304 95.3876 103.888 94.2206Z" fill="#263238"/>
<path d="M101.075 101.286C101.008 101.286 101.019 101.152 101.075 101.152C108.429 101.294 115.489 104.065 120.976 108.964C121.165 109.143 121.154 109.489 120.976 109.299C117.069 106.129 107.147 102.29 101.075 101.286Z" fill="#263238"/>
<path d="M118.754 117.77C113.341 113.049 106.957 110.527 100.026 108.842C99.9368 108.842 100.026 108.696 100.026 108.696C103.631 108.574 107.939 110.08 111.187 111.543C114.231 112.832 116.883 114.899 118.877 117.536C119 117.692 118.866 117.871 118.754 117.77Z" fill="#263238"/>
<path d="M122.259 100.047C123.318 100.831 124.304 101.709 125.206 102.669C126.116 103.569 126.771 104.693 127.103 105.929C127.23 106.503 127.138 107.104 126.846 107.614C126.542 108.124 126.112 108.546 125.596 108.842C125.061 109.097 124.478 109.235 123.886 109.249C123.293 109.262 122.705 109.15 122.159 108.92L119.435 107.915L121.668 109.801C122.655 110.633 123.5 111.621 124.168 112.726C124.505 113.217 124.734 113.775 124.84 114.362C124.945 114.949 124.926 115.551 124.782 116.13C124.642 116.668 124.322 117.142 123.875 117.473C123.428 117.804 122.882 117.972 122.326 117.949C121.091 117.872 119.894 117.489 118.844 116.833L115.897 115.081L118.13 117.692C118.748 118.418 119.27 119.221 119.681 120.081C120.101 120.875 120.276 121.776 120.183 122.67C120.121 123.07 119.95 123.445 119.691 123.756C119.431 124.067 119.092 124.301 118.71 124.434C117.807 124.589 116.878 124.484 116.031 124.132C114.188 123.388 112.404 122.504 110.696 121.487C109.826 121.007 108.933 120.516 108.029 120.07C107.147 119.571 106.169 119.267 105.16 119.177C106.14 119.365 107.073 119.744 107.906 120.293C108.765 120.795 109.602 121.353 110.44 121.9C112.108 123.06 113.883 124.058 115.741 124.88C116.741 125.344 117.854 125.507 118.944 125.349C119.518 125.189 120.034 124.867 120.43 124.422C120.826 123.976 121.085 123.426 121.177 122.838C121.323 121.728 121.132 120.601 120.63 119.601C120.188 118.637 119.626 117.733 118.955 116.911L118.208 117.771C119.43 118.59 120.847 119.072 122.315 119.166C123.118 119.185 123.905 118.934 124.547 118.451C125.162 117.942 125.612 117.263 125.842 116.498C126.026 115.764 126.052 114.999 125.917 114.254C125.782 113.509 125.49 112.802 125.061 112.179C124.315 110.973 123.372 109.901 122.27 109.009L121.757 109.891C122.446 110.148 123.183 110.253 123.917 110.199C124.651 110.145 125.365 109.933 126.009 109.578C126.624 109.174 127.127 108.621 127.471 107.971C127.812 107.306 127.899 106.541 127.717 105.817C127.293 104.518 126.521 103.359 125.485 102.469C124.504 101.542 123.422 100.73 122.259 100.047Z" fill="#263238"/>
<path d="M137.84 111.755C137.84 111.755 129.916 84.6109 120.819 92.9037C118.118 95.3703 109.971 108.719 112.616 110.404C116.042 112.637 120.485 107.659 122.784 104.109C122.784 104.109 124.179 113.73 131.155 114.746C132.436 114.914 133.74 114.723 134.92 114.195C136.1 113.667 137.111 112.822 137.84 111.755Z" fill="#EB9481"/>
<path d="M121.657 92.2673C120.482 93.1084 119.437 94.116 118.554 95.2585C117.649 96.382 116.814 97.5599 116.054 98.7854C114.51 101.237 113.18 103.817 112.08 106.498C111.79 107.212 111.602 107.963 111.522 108.73C111.477 109.171 111.53 109.617 111.678 110.036C111.836 110.501 112.152 110.896 112.571 111.152C113.309 111.605 114.184 111.779 115.038 111.643C115.823 111.505 116.578 111.233 117.27 110.839C118.544 110.062 119.676 109.073 120.619 107.915C121.569 106.81 122.434 105.635 123.208 104.399L122.293 104.187C122.495 105.277 122.798 106.346 123.197 107.38C123.586 108.409 124.08 109.397 124.67 110.326C125.269 111.248 125.999 112.079 126.835 112.793C127.668 113.494 128.626 114.032 129.659 114.378C128.702 113.913 127.83 113.291 127.081 112.536C126.346 111.777 125.719 110.921 125.217 109.991C124.707 109.075 124.288 108.11 123.967 107.112C123.649 106.118 123.421 105.099 123.286 104.065L123.141 102.781L122.371 103.897C121.581 105.071 120.712 106.189 119.77 107.246C118.882 108.287 117.83 109.176 116.656 109.88C116.158 110.229 115.578 110.445 114.973 110.508C114.367 110.57 113.756 110.477 113.196 110.237C112.337 109.779 112.683 108.239 113.129 106.978C113.61 105.652 114.158 104.352 114.77 103.082C115.384 101.799 115.998 100.515 116.679 99.2654C117.965 96.6888 119.645 94.3279 121.657 92.2673Z" fill="#263238"/>
<path d="M154.348 121.32L141.077 151.064C141.077 151.064 162.573 158.642 169.582 156.165C176.592 153.687 196.369 132.793 205.8 116.598C215.232 100.404 209.673 98.283 194.103 109.232C178.534 120.181 166.201 127.871 165.743 127.67C165.285 127.469 154.348 121.32 154.348 121.32Z" fill="#EBEBEB"/>
<path d="M158.7 125.706C158.7 125.617 158.89 125.706 158.868 125.773C156.062 134.591 152.779 143.25 149.035 151.712C149.035 151.801 148.834 151.712 148.867 151.645C151.669 142.825 154.951 134.166 158.7 125.706Z" fill="#263238"/>
<path d="M181.458 147.001C189.829 138.854 199.874 126.789 205.8 116.599C213.423 103.495 211.236 99.6001 201.86 104.411L181.458 147.001Z" fill="#C7C7C7"/>
<path d="M203.479 150.54L205.711 167.962C205.711 167.962 242.186 164.324 260.981 148.263C260.981 148.263 240.891 108.004 220.522 99.3658C210.321 95.0352 202.541 99.2318 199.784 106.743C199.081 108.641 191.246 129.914 193.155 138.452C194.807 145.975 203.479 150.54 203.479 150.54Z" fill="#EBEBEB"/>
<path d="M204.249 110.36L204.316 110.047V109.924C204.316 109.924 204.249 109.868 204.238 109.924L204.16 110.069C204.082 110.27 204.003 110.471 203.936 110.672C203.802 111.074 203.691 111.487 203.579 111.9C203.356 112.715 203.155 113.552 202.965 114.378C202.586 116.041 202.329 117.726 202.095 119.411C201.636 122.798 201.482 126.22 201.637 129.635C201.759 133.076 202.376 136.481 203.468 139.747C204.52 143.06 206.407 146.047 208.948 148.419L208.87 148.296C209.896 151.366 210.968 154.413 212.051 157.459L213.702 162.013C214.272 163.52 214.819 165.049 215.533 166.478C214.885 164.993 214.417 163.453 213.881 161.924L212.363 157.326L209.439 148.095V148.028L209.383 147.973C207.09 145.543 205.397 142.612 204.439 139.412C203.475 136.207 202.897 132.899 202.72 129.557C202.545 126.209 202.598 122.853 202.876 119.512C203.01 117.837 203.233 116.163 203.457 114.489C203.568 113.641 203.702 112.815 203.847 111.978L204.104 110.739C204.104 110.527 204.193 110.326 204.249 110.125C204.245 110.077 204.245 110.028 204.249 109.98C204.249 109.98 204.249 110.058 204.249 110.092V110.36Z" fill="#263238"/>
<path d="M193.746 125.516L193.88 124.97C193.854 124.258 193.884 123.545 193.97 122.838C194.087 121.979 194.289 121.134 194.572 120.315C194.572 120.26 194.662 120.315 194.65 120.315C194.381 121.502 194.202 122.707 194.115 123.92C194.691 121.447 195.456 119.022 196.403 116.666C196.403 116.651 196.409 116.637 196.419 116.626C196.429 116.616 196.444 116.61 196.458 116.61C196.473 116.61 196.487 116.616 196.498 116.626C196.508 116.637 196.514 116.651 196.514 116.666C195.778 119.612 194.996 122.548 194.371 125.516C193.746 128.485 193.255 131.465 192.742 134.445C192.742 134.557 192.541 134.523 192.552 134.445C192.682 131.439 193.082 128.451 193.746 125.516Z" fill="#263238"/>
<path d="M204.517 118.853C204.506 119.076 204.561 119.297 204.677 119.488C204.793 119.678 204.963 119.83 205.166 119.923C205.368 120.016 205.594 120.046 205.814 120.01C206.034 119.973 206.238 119.872 206.4 119.718C206.562 119.564 206.674 119.366 206.722 119.148C206.769 118.93 206.751 118.703 206.668 118.496C206.586 118.288 206.443 118.111 206.258 117.985C206.074 117.86 205.856 117.793 205.633 117.793C205.346 117.792 205.07 117.902 204.863 118.1C204.655 118.297 204.531 118.567 204.517 118.853Z" fill="#263238"/>
<path d="M205.331 130.126C204.74 130.126 204.26 129.646 204.26 129.054C204.26 128.463 204.74 127.983 205.331 127.983C205.923 127.983 206.403 128.463 206.403 129.054C206.403 129.646 205.923 130.126 205.331 130.126Z" fill="#263238"/>
<path d="M211.292 147.973C210.7 147.973 210.22 147.493 210.22 146.901C210.22 146.309 210.7 145.83 211.292 145.83C211.883 145.83 212.363 146.309 212.363 146.901C212.363 147.493 211.883 147.973 211.292 147.973Z" fill="#263238"/>
<path d="M214.461 157.381C213.87 157.381 213.39 156.902 213.39 156.31C213.39 155.718 213.87 155.239 214.461 155.239C215.053 155.239 215.533 155.718 215.533 156.31C215.533 156.902 215.053 157.381 214.461 157.381Z" fill="#263238"/>
<path d="M206.66 139.267C206.068 139.267 205.588 138.787 205.588 138.195C205.588 137.603 206.068 137.124 206.66 137.124C207.251 137.124 207.731 137.603 207.731 138.195C207.731 138.787 207.251 139.267 206.66 139.267Z" fill="#263238"/>
<path d="M225.701 97.4014C252.231 97.5019 273.024 103.138 277.845 109.176C281.83 114.154 294.174 135.963 299.386 149.245C300.849 152.973 271.093 166.31 270.033 162.158C268.381 155.73 254.831 124.601 254.686 124.099C254.396 122.983 227.754 112.056 220.946 109.589C208.457 104.891 211.638 97.3121 225.701 97.4014Z" fill="#EB9481"/>
<path d="M289.408 196.981C290.373 196.846 291.274 196.418 291.988 195.756C292.702 195.093 293.197 194.228 293.404 193.276C294.89 194.003 296.585 194.185 298.192 193.789C300.982 192.974 300.927 188.209 300.927 188.209C302.625 188.639 304.414 188.55 306.061 187.952C308.661 186.892 309.275 182.092 309.275 182.092C311.055 181.629 312.609 180.539 313.65 179.023C316.273 174.871 313.003 168.107 310.972 163.788C308.94 159.469 299.13 149.111 297.467 146.957L269.564 159.759C269.564 159.759 273.169 181.724 276.261 186.467C278.962 190.463 285.725 197.35 289.408 196.981Z" fill="#EB9481"/>
<path d="M292.868 193.287C289.062 189.715 286.518 185.206 283.727 180.853C283.672 180.753 283.817 180.652 283.884 180.753C286.607 185.117 290.167 188.889 293.058 193.131C293.079 193.156 293.089 193.188 293.085 193.22C293.082 193.253 293.066 193.283 293.041 193.303C293.016 193.324 292.984 193.334 292.951 193.331C292.919 193.328 292.889 193.312 292.868 193.287Z" fill="#263238"/>
<path d="M300.514 188.298C299.728 187.403 299.064 186.409 298.538 185.34C297.913 184.224 297.31 183.108 296.719 181.992C295.536 179.76 294.397 177.527 293.371 175.206C293.371 175.105 293.471 175.016 293.527 175.117C294.71 177.349 295.915 179.581 297.199 181.713C297.835 182.829 298.482 183.878 299.13 184.961C299.819 185.934 300.396 186.982 300.849 188.086C300.877 188.13 300.886 188.184 300.874 188.235C300.863 188.287 300.832 188.331 300.787 188.359C300.743 188.387 300.689 188.397 300.638 188.385C300.586 188.374 300.542 188.342 300.514 188.298Z" fill="#263238"/>
<path d="M309.23 182.014C308.53 181.196 307.975 180.263 307.59 179.257C307.065 178.23 306.552 177.203 306.016 176.177C304.9 174.134 303.907 172.092 302.768 170.083C302.756 170.062 302.753 170.037 302.76 170.014C302.766 169.991 302.781 169.972 302.802 169.96C302.822 169.948 302.847 169.945 302.87 169.951C302.893 169.957 302.913 169.973 302.924 169.993C304.041 172.025 305.268 174.034 306.407 176.087C306.965 177.081 307.523 178.096 308.07 179.101C308.652 179.977 309.079 180.948 309.331 181.969C309.331 181.969 309.264 182.047 309.23 182.014Z" fill="#263238"/>
<path d="M263.09 147.504L293.069 132.715C293.069 132.715 283.125 110.293 277.086 105.928C271.048 101.564 245.344 96.9996 226.627 97.1782C207.597 97.3679 206.816 104.879 224.696 111.386C242.576 117.893 254.072 123.82 254.173 124.322C254.273 124.824 263.09 147.504 263.09 147.504Z" fill="#EBEBEB"/>
<path d="M261.427 144.044C260.122 140.919 254.016 124.501 253.816 124.367C253.391 124.099 246.55 120.773 244.518 119.779C242.799 118.942 241.058 118.139 239.317 117.335C237.844 117.023 236.359 116.71 234.92 116.219C234.903 116.213 234.888 116.201 234.877 116.186C234.867 116.171 234.861 116.154 234.861 116.135C234.861 116.117 234.867 116.099 234.877 116.084C234.888 116.069 234.903 116.058 234.92 116.052C235.944 116.188 236.958 116.394 237.956 116.666L232.23 114.043C232.23 114.043 232.23 113.965 232.23 113.976C236.549 115.482 254.251 123.34 254.284 123.608C254.318 123.876 261.539 143.307 261.584 143.698C261.662 143.91 261.461 144.133 261.427 144.044Z" fill="#263238"/>
<path d="M263.09 139.379C262.99 139.379 262.923 139.256 263.012 139.211C271.153 134.812 279.529 130.863 288.103 127.38C288.203 127.38 288.27 127.492 288.181 127.548C280.036 131.94 271.661 135.889 263.09 139.379Z" fill="#263238"/>
<path d="M211.649 99.1315C211.649 100.248 208.3 108.518 203.367 109.534C201.749 109.857 199.572 101.129 199.572 101.129L199.26 100.527L194.952 92.0107L203.825 82.5238L205.131 81.2402C205.131 81.2402 206.146 83.6399 207.363 86.6534C207.419 86.7873 207.486 86.9213 207.541 87.0775C207.597 87.2338 207.686 87.4012 207.753 87.5686C207.943 88.0151 208.144 88.4615 208.323 88.9303C208.501 89.399 208.602 89.6111 208.736 90.0464L209.16 91.1625C210.163 93.7616 210.994 96.4237 211.649 99.1315Z" fill="#EB9481"/>
<path d="M207.396 86.6534C207.129 89.4179 206.262 92.0909 204.857 94.4866C203.452 96.8824 201.542 98.9435 199.26 100.527L194.952 92.0107L203.825 82.5238L205.131 81.2402C205.131 81.2402 206.146 83.6399 207.396 86.6534Z" fill="#263238"/>
<path d="M179.761 75.3026C176.413 91.6983 185.855 95.56 189.382 96.2744C192.597 96.9329 203.613 98.7521 208.646 82.7805C213.68 66.809 207.106 60.0788 199.84 58.226C192.574 56.3733 183.11 58.9069 179.761 75.3026Z" fill="#FFB19F"/>
<path d="M185.275 84.4433C185.593 85.2084 186.1 85.8805 186.748 86.3965C187.116 86.6628 187.556 86.8107 188.009 86.8206C188.992 86.8206 189.248 85.9835 189.271 85.2134C189.281 84.8049 189.243 84.3967 189.159 83.9968C187.945 84.5549 186.584 84.7113 185.275 84.4433Z" fill="#263238"/>
<path d="M186.737 86.3965C187.105 86.6628 187.545 86.8107 187.998 86.8206C188.98 86.8206 189.237 85.9835 189.26 85.2134C188.767 85.0953 188.249 85.1481 187.791 85.3631C187.333 85.5781 186.961 85.9425 186.737 86.3965Z" fill="#FF9BBC"/>
<path d="M183.701 71.2956C184.073 71.3163 184.446 71.3163 184.817 71.2956C185.223 71.3499 185.635 71.2674 185.989 71.0612C186.091 70.9766 186.161 70.8596 186.188 70.7297C186.214 70.5997 186.195 70.4646 186.134 70.3469C185.987 70.1305 185.783 69.9581 185.545 69.8481C185.307 69.738 185.044 69.6944 184.784 69.7219C184.244 69.6954 183.712 69.8659 183.288 70.2018C183.203 70.29 183.145 70.4005 183.121 70.5203C183.096 70.6402 183.106 70.7646 183.149 70.8791C183.192 70.9936 183.267 71.0935 183.365 71.1672C183.463 71.2409 183.579 71.2854 183.701 71.2956Z" fill="#263238"/>
<path d="M194.204 75.0122C193.829 74.9947 193.456 74.9499 193.088 74.8783C192.687 74.8815 192.296 74.7563 191.972 74.5211C191.883 74.424 191.828 74.3006 191.816 74.1696C191.804 74.0386 191.835 73.9073 191.905 73.7956C192.078 73.5982 192.3 73.4499 192.549 73.3656C192.798 73.2814 193.065 73.2641 193.322 73.3157C193.861 73.3516 194.369 73.5816 194.751 73.963C194.834 74.0595 194.887 74.1788 194.902 74.3055C194.917 74.4322 194.893 74.5604 194.834 74.6735C194.775 74.7866 194.683 74.8794 194.571 74.9398C194.459 75.0002 194.331 75.0254 194.204 75.0122Z" fill="#263238"/>
<path d="M191.068 78.1931C191.068 78.1931 191.135 78.2712 191.123 78.3159C190.833 79.432 190.688 80.7267 191.615 81.3294C191.615 81.3294 191.615 81.3964 191.615 81.3852C190.398 80.9276 190.61 79.1976 191.068 78.1931Z" fill="#263238"/>
<path d="M192.318 77.3114C194.137 77.5792 193.434 81.1954 191.771 80.9387C190.108 80.682 190.8 77.0323 192.318 77.3114Z" fill="#263238"/>
<path d="M192.998 77.5902C193.277 77.8469 193.512 78.271 193.891 78.3827C194.271 78.4943 194.728 78.1929 195.086 77.8804C194.974 78.5724 194.572 79.2309 193.802 79.1974C193.032 79.1639 192.742 78.4608 192.686 77.7242C192.742 77.646 192.887 77.4786 192.998 77.5902Z" fill="#263238"/>
<path d="M184.985 76.6418C184.985 76.6418 184.884 76.6418 184.884 76.72C184.717 77.8361 184.326 79.1196 183.255 79.3094C184.516 79.421 185.007 77.7356 184.985 76.6418Z" fill="#263238"/>
<path d="M184.159 75.2913C182.384 74.8226 181.592 78.4165 183.232 78.8406C184.873 79.2647 185.688 75.6708 184.159 75.2913Z" fill="#263238"/>
<path d="M183.389 75.3582C183.065 75.481 182.708 75.7712 182.362 75.7154C182.016 75.6596 181.759 75.202 181.592 74.7778C181.592 74.7778 181.592 74.7778 181.525 74.7778C181.357 75.4587 181.424 76.2288 182.061 76.5078C182.697 76.7868 183.177 76.2623 183.523 75.6149C183.579 75.5256 183.523 75.3024 183.389 75.3582Z" fill="#263238"/>
<path d="M185.487 82.0547C185.487 82.0547 184.918 83.6731 184.761 84.4655C184.761 84.5436 184.929 84.6106 185.197 84.6776C185.848 84.9365 186.559 85.011 187.25 84.8928C187.941 84.7747 188.586 84.4685 189.114 84.0079C189.132 83.9961 189.144 83.9777 189.149 83.9567C189.153 83.9358 189.148 83.9141 189.137 83.8963C189.125 83.8785 189.106 83.8662 189.085 83.862C189.065 83.8578 189.043 83.8621 189.025 83.874C187.884 84.3633 186.614 84.4653 185.409 84.1642C185.409 83.9409 186.469 81.4185 186.346 81.385C185.728 81.3026 185.101 81.3026 184.482 81.385C185.599 78.0367 187.183 74.7665 188.21 71.34C188.21 71.2172 188.065 71.1391 188.009 71.2396C186.173 74.6325 184.677 78.1992 183.545 81.8873C183.4 82.3895 185.141 82.1217 185.487 82.0547Z" fill="#263238"/>
<path d="M207.184 84.8004C204.416 84.287 205.309 78.4609 205.309 78.4609C205.309 78.4609 199.807 77.0099 200.086 68.6279C199.619 71.0377 199.864 73.5311 200.789 75.8045C200.789 75.8045 191.369 72.2106 189.449 63.0138C189.449 63.0138 189.974 67.5787 191.112 69.4538C188.852 68.051 187.137 65.9219 186.246 63.4156C186.246 63.4156 183.299 67.6457 181.659 68.5833C181.659 68.5833 182.194 59.7883 186.871 56.4957C196.737 49.5647 206.291 60.8932 206.291 60.8932C206.291 60.8932 212.631 63.8286 213.546 69.4873C214.952 78.2153 207.184 84.8004 207.184 84.8004Z" fill="#263238"/>
<path d="M205.265 83.2267C205.265 83.2267 209.26 78.26 211.537 79.7109C213.814 81.1619 210.566 88.5505 207.72 89.3876C207.363 89.5227 206.982 89.584 206.601 89.5678C206.22 89.5516 205.846 89.4583 205.501 89.2935C205.157 89.1286 204.85 88.8957 204.598 88.6088C204.346 88.3219 204.155 87.9869 204.037 87.6242L205.265 83.2267Z" fill="#EB9481"/>
<path d="M210.555 81.7759V81.8428C208.546 82.5014 207.408 84.2425 206.559 86.0618C206.687 85.8753 206.853 85.7185 207.047 85.602C207.24 85.4855 207.457 85.412 207.681 85.3866C207.906 85.3612 208.133 85.3844 208.348 85.4547C208.562 85.525 208.759 85.6407 208.925 85.7939C208.932 85.8047 208.935 85.8172 208.935 85.8298C208.934 85.8424 208.931 85.8547 208.924 85.8652C208.917 85.8757 208.907 85.884 208.895 85.8891C208.884 85.8943 208.871 85.8961 208.858 85.8943C208.523 85.7641 208.156 85.7403 207.806 85.8262C207.457 85.912 207.142 86.1034 206.905 86.3743C206.519 86.8346 206.179 87.3318 205.89 87.8587C205.789 88.0261 205.477 87.8587 205.555 87.7136C205.711 85.2247 207.876 81.8763 210.555 81.7759Z" fill="#263238"/>
<path d="M199.595 101.297L204.249 107.781L210.946 96.4973L214.193 98.7965C214.193 98.7965 208.97 115.404 208.758 114.768L204.294 109.288L201.057 114.645L198.758 103.719L199.595 101.297Z" fill="#EBEBEB"/>
<path d="M199.628 109.31C199.316 107.491 198.936 105.672 198.702 103.841C198.702 103.841 198.791 103.73 198.825 103.841C199.606 105.482 200.789 112.435 201.191 114.076C201.325 113.842 204.238 109.299 204.294 109.355C205.175 110.181 208.457 114.165 208.702 114.545C209.528 111.9 212.787 102.268 213.892 99.6782C213.892 99.6112 214.037 99.6782 214.015 99.6782C213.39 102.413 209.115 115.371 209.004 115.371C207.335 113.518 205.763 111.581 204.294 109.567C203.308 111.538 202.19 113.44 200.945 115.259C200.405 113.3 199.965 111.314 199.628 109.31Z" fill="#263238"/>
<path d="M210.466 96.5309C211.269 94.6335 213.434 98.6292 211.716 100.995C209.171 104.433 204.36 108.507 203.3 108.529C202.24 108.551 198.836 104.299 198.4 103.373C197.965 102.446 198.925 100.37 199.26 100.571C199.595 100.772 202.541 105.292 202.954 105.504C203.367 105.716 208.713 100.605 210.466 96.5309Z" fill="#F31E1E"/>
<path d="M371.03 455.629H421.523V466.79H371.03V455.629Z" fill="#F31E1E"/>
<g opacity="0.1">
<path opacity="0.1" d="M419.435 456.645C418.691 459.575 418.691 462.644 419.435 465.574C419.836 464.12 420.024 462.617 419.994 461.109C420.017 459.603 419.829 458.1 419.435 456.645Z" fill="black"/>
<path opacity="0.1" d="M415.674 456.645C414.93 459.575 414.93 462.644 415.674 465.574C416.418 462.644 416.418 459.575 415.674 456.645Z" fill="black"/>
<path opacity="0.1" d="M413.844 456.645C413.1 459.575 413.1 462.644 413.844 465.574C414.588 462.644 414.588 459.575 413.844 456.645Z" fill="black"/>
<path opacity="0.1" d="M403.754 456.645C403.01 459.575 403.01 462.644 403.754 465.574C404.498 462.644 404.498 459.575 403.754 456.645Z" fill="black"/>
<path opacity="0.1" d="M401.031 456.645C400.637 458.1 400.45 459.603 400.473 461.109C400.442 462.617 400.63 464.12 401.031 465.574C401.775 462.644 401.775 459.575 401.031 456.645Z" fill="black"/>
<path opacity="0.1" d="M389.747 456.645C389.359 458.101 389.171 459.603 389.189 461.109C389.164 462.616 389.352 464.119 389.747 465.574C390.147 464.12 390.335 462.617 390.305 461.109C390.328 459.603 390.14 458.1 389.747 456.645Z" fill="black"/>
<path opacity="0.1" d="M387.146 456.645C386.402 459.575 386.402 462.644 387.146 465.574C387.89 462.644 387.89 459.575 387.146 456.645Z" fill="black"/>
<path opacity="0.1" d="M382.358 456.645C381.965 458.1 381.777 459.603 381.8 461.109C381.77 462.617 381.958 464.12 382.358 465.574C382.753 464.119 382.941 462.616 382.916 461.109C382.934 459.603 382.746 458.101 382.358 456.645Z" fill="black"/>
<path opacity="0.1" d="M391.923 456.645C391.179 459.575 391.179 462.644 391.923 465.574C392.667 462.644 392.667 459.575 391.923 456.645Z" fill="black"/>
<path opacity="0.1" d="M410.507 456.645C410.119 458.101 409.931 459.603 409.948 461.109C409.924 462.616 410.112 464.119 410.507 465.574C410.907 464.12 411.095 462.617 411.065 461.109C411.088 459.603 410.9 458.1 410.507 456.645Z" fill="black"/>
<path opacity="0.1" d="M397.437 456.645C396.693 459.575 396.693 462.644 397.437 465.574C398.181 462.644 398.181 459.575 397.437 456.645Z" fill="black"/>
<path opacity="0.1" d="M395.562 456.645C395.169 458.1 394.981 459.603 395.004 461.109C394.973 462.617 395.161 464.12 395.562 465.574C396.306 462.644 396.306 459.575 395.562 456.645Z" fill="black"/>
<path opacity="0.1" d="M376.13 456.645C375.742 458.101 375.555 459.603 375.572 461.109C375.542 462.617 375.73 464.12 376.13 465.574C376.525 464.119 376.713 462.616 376.688 461.109C376.706 459.603 376.518 458.101 376.13 456.645Z" fill="black"/>
<path opacity="0.1" d="M373.295 456.645C372.551 459.575 372.551 462.644 373.295 465.574C374.039 462.644 374.039 459.575 373.295 456.645Z" fill="black"/>
<path opacity="0.1" d="M380.137 456.645C379.744 458.1 379.556 459.603 379.579 461.109C379.549 462.617 379.737 464.12 380.137 465.574C380.881 462.644 380.881 459.575 380.137 456.645Z" fill="black"/>
<path opacity="0.1" d="M405.93 456.645C405.186 459.575 405.186 462.644 405.93 465.574C406.675 462.644 406.675 459.575 405.93 456.645Z" fill="black"/>
</g>
<path opacity="0.1" d="M371.03 455.629V457.995L421.523 459.591V455.629H371.03Z" fill="black"/>
<path d="M374.478 444.468H424.971V455.629H374.478V444.468Z" fill="#F31E1E"/>
<g opacity="0.1">
<path opacity="0.1" d="M422.895 445.495C422.151 448.425 422.151 451.494 422.895 454.424C423.64 451.494 423.64 448.425 422.895 445.495Z" fill="black"/>
<path opacity="0.1" d="M419.134 445.495C418.39 448.425 418.39 451.494 419.134 454.424C419.878 451.494 419.878 448.425 419.134 445.495Z" fill="black"/>
<path opacity="0.1" d="M417.292 445.495C416.904 446.951 416.716 448.453 416.734 449.959C416.711 451.466 416.899 452.969 417.292 454.424C417.691 452.97 417.879 451.467 417.851 449.959C417.874 448.452 417.686 446.95 417.292 445.495Z" fill="black"/>
<path opacity="0.1" d="M407.214 445.495C406.47 448.425 406.47 451.494 407.214 454.424C407.958 451.494 407.958 448.425 407.214 445.495Z" fill="black"/>
<path opacity="0.1" d="M404.48 445.495C403.736 448.425 403.736 451.494 404.48 454.424C404.878 452.97 405.066 451.467 405.038 449.959C405.061 448.452 404.874 446.95 404.48 445.495Z" fill="black"/>
<path opacity="0.1" d="M393.207 445.495C392.463 448.425 392.463 451.494 393.207 454.424C393.951 451.494 393.951 448.425 393.207 445.495Z" fill="black"/>
<path opacity="0.1" d="M390.64 445.495C390.251 446.951 390.063 448.453 390.082 449.959C390.053 451.467 390.241 452.97 390.64 454.424C391.038 452.97 391.226 451.467 391.198 449.959C391.216 448.453 391.028 446.951 390.64 445.495Z" fill="black"/>
<path opacity="0.1" d="M385.807 445.495C385.063 448.425 385.063 451.494 385.807 454.424C386.551 451.494 386.551 448.425 385.807 445.495Z" fill="black"/>
<path opacity="0.1" d="M395.383 445.495C394.639 448.425 394.639 451.494 395.383 454.424C396.127 451.494 396.127 448.425 395.383 445.495Z" fill="black"/>
<path opacity="0.1" d="M413.955 445.495C413.211 448.425 413.211 451.494 413.955 454.424C414.699 451.494 414.699 448.425 413.955 445.495Z" fill="black"/>
<path opacity="0.1" d="M400.897 445.495C400.153 448.425 400.153 451.494 400.897 454.424C401.641 451.494 401.641 448.425 400.897 445.495Z" fill="black"/>
<path opacity="0.1" d="M399.011 445.495C398.267 448.425 398.267 451.494 399.011 454.424C399.409 452.97 399.597 451.467 399.569 449.959C399.592 448.452 399.405 446.95 399.011 445.495Z" fill="black"/>
<path opacity="0.1" d="M379.568 445.495C378.824 448.425 378.824 451.494 379.568 454.424C380.312 451.494 380.312 448.425 379.568 445.495Z" fill="black"/>
<path opacity="0.1" d="M376.755 445.495C376.011 448.425 376.011 451.494 376.755 454.424C377.499 451.494 377.499 448.425 376.755 445.495Z" fill="black"/>
<path opacity="0.1" d="M383.586 445.495C382.842 448.425 382.842 451.494 383.586 454.424C383.985 452.97 384.173 451.467 384.144 449.959C384.168 448.452 383.98 446.95 383.586 445.495Z" fill="black"/>
<path opacity="0.1" d="M409.39 445.495C408.997 446.95 408.809 448.452 408.832 449.959C408.804 451.467 408.992 452.97 409.39 454.424C409.784 452.969 409.972 451.466 409.949 449.959C409.967 448.453 409.779 446.951 409.39 445.495Z" fill="black"/>
</g>
<path opacity="0.1" d="M374.49 444.468V446.845L424.971 448.43V444.468H374.49Z" fill="black"/>
<path d="M366.677 422.246H417.17V433.407H366.677V422.246Z" fill="#F31E1E"/>
<g opacity="0.1">
<path opacity="0.1" d="M415.094 423.307C414.35 426.236 414.35 429.306 415.094 432.236C415.838 429.306 415.838 426.236 415.094 423.307Z" fill="black"/>
<path opacity="0.1" d="M411.333 423.307C410.939 424.761 410.751 426.264 410.775 427.771C410.746 429.278 410.934 430.782 411.333 432.236C412.077 429.306 412.077 426.236 411.333 423.307Z" fill="black"/>
<path opacity="0.1" d="M409.491 423.307C408.747 426.236 408.747 429.306 409.491 432.236C409.89 430.782 410.078 429.278 410.049 427.771C410.073 426.264 409.885 424.761 409.491 423.307Z" fill="black"/>
<path opacity="0.1" d="M399.412 423.307C398.668 426.236 398.668 429.306 399.412 432.236C400.156 429.306 400.156 426.236 399.412 423.307Z" fill="black"/>
<path opacity="0.1" d="M396.678 423.307C395.934 426.236 395.934 429.306 396.678 432.236C397.422 429.306 397.422 426.236 396.678 423.307Z" fill="black"/>
<path opacity="0.1" d="M385.405 423.307C384.661 426.236 384.661 429.306 385.405 432.236C386.149 429.306 386.149 426.236 385.405 423.307Z" fill="black"/>
<path opacity="0.1" d="M382.827 423.307C382.083 426.236 382.083 429.306 382.827 432.236C383.226 430.782 383.414 429.278 383.385 427.771C383.409 426.264 383.221 424.761 382.827 423.307Z" fill="black"/>
<path opacity="0.1" d="M378.005 423.307C377.261 426.236 377.261 429.306 378.005 432.236C378.749 429.306 378.749 426.236 378.005 423.307Z" fill="black"/>
<path opacity="0.1" d="M387.582 423.307C387.188 424.761 387 426.264 387.024 427.771C386.995 429.278 387.183 430.782 387.582 432.236C387.975 430.781 388.163 429.278 388.14 427.771C388.158 426.264 387.97 424.762 387.582 423.307Z" fill="black"/>
<path opacity="0.1" d="M406.165 423.307C405.421 426.236 405.421 429.306 406.165 432.236C406.909 429.306 406.909 426.236 406.165 423.307Z" fill="black"/>
<path opacity="0.1" d="M393.095 423.307C392.351 426.236 392.351 429.306 393.095 432.236C393.839 429.306 393.839 426.236 393.095 423.307Z" fill="black"/>
<path opacity="0.1" d="M391.209 423.307C390.465 426.236 390.465 429.306 391.209 432.236C391.953 429.306 391.953 426.236 391.209 423.307Z" fill="black"/>
<path opacity="0.1" d="M371.766 423.307C371.037 426.238 371.037 429.304 371.766 432.236C372.51 429.306 372.51 426.236 371.766 423.307Z" fill="black"/>
<path opacity="0.1" d="M368.954 423.307C368.56 424.761 368.372 426.264 368.396 427.771C368.367 429.278 368.555 430.782 368.954 432.236C369.698 429.306 369.698 426.236 368.954 423.307Z" fill="black"/>
<path opacity="0.1" d="M375.784 423.307C375.04 426.236 375.04 429.306 375.784 432.236C376.528 429.306 376.528 426.236 375.784 423.307Z" fill="black"/>
<path opacity="0.1" d="M401.589 423.307C401.2 424.762 401.013 426.264 401.031 427.771C401.002 429.278 401.19 430.782 401.589 432.236C401.982 430.781 402.17 429.278 402.147 427.771C402.165 426.264 401.977 424.762 401.589 423.307Z" fill="black"/>
</g>
<path opacity="0.1" d="M366.688 422.258V424.624L417.17 426.22V422.258H366.688Z" fill="black"/>
<path d="M367.949 411.096H418.442V422.258H367.949V411.096Z" fill="#F31E1E"/>
<g opacity="0.1">
<path opacity="0.1" d="M370.226 421.074C370.615 419.619 370.803 418.117 370.784 416.61C370.813 415.103 370.625 413.599 370.226 412.146C369.827 413.599 369.639 415.103 369.668 416.61C369.649 418.117 369.837 419.619 370.226 421.074Z" fill="black"/>
<path opacity="0.1" d="M373.987 421.074C374.377 419.619 374.564 418.117 374.545 416.61C374.569 415.103 374.381 413.6 373.987 412.146C373.589 413.599 373.401 415.103 373.429 416.61C373.405 418.117 373.593 419.62 373.987 421.074Z" fill="black"/>
<path opacity="0.1" d="M375.829 421.074C376.558 418.143 376.558 415.077 375.829 412.146C375.085 415.075 375.085 418.145 375.829 421.074Z" fill="black"/>
<path opacity="0.1" d="M385.907 421.074C386.297 419.619 386.484 418.117 386.466 416.61C386.489 415.103 386.301 413.6 385.907 412.146C385.509 413.599 385.321 415.103 385.349 416.61C385.331 418.117 385.518 419.619 385.907 421.074Z" fill="black"/>
<path opacity="0.1" d="M388.631 421.074C389.375 418.145 389.375 415.075 388.631 412.146C387.887 415.075 387.887 418.145 388.631 421.074Z" fill="black"/>
<path opacity="0.1" d="M399.915 421.074C400.304 419.619 400.492 418.117 400.473 416.61C400.501 415.103 400.313 413.599 399.915 412.146C399.521 413.6 399.334 415.103 399.357 416.61C399.338 418.117 399.526 419.619 399.915 421.074Z" fill="black"/>
<path opacity="0.1" d="M402.526 421.074C403.27 418.145 403.27 415.075 402.526 412.146C401.782 415.075 401.782 418.145 402.526 421.074Z" fill="black"/>
<path opacity="0.1" d="M407.303 421.074C408.047 418.145 408.047 415.075 407.303 412.146C406.559 415.075 406.559 418.145 407.303 421.074Z" fill="black"/>
<path opacity="0.1" d="M397.738 421.074C398.482 418.145 398.482 415.075 397.738 412.146C397.34 413.599 397.152 415.103 397.18 416.61C397.156 418.117 397.344 419.62 397.738 421.074Z" fill="black"/>
<path opacity="0.1" d="M379.155 421.074C379.549 419.62 379.737 418.117 379.713 416.61C379.742 415.103 379.554 413.599 379.155 412.146C378.762 413.6 378.574 415.103 378.597 416.61C378.578 418.117 378.766 419.619 379.155 421.074Z" fill="black"/>
<path opacity="0.1" d="M392.225 421.074C392.614 419.619 392.802 418.117 392.783 416.61C392.806 415.103 392.618 413.6 392.225 412.146C391.826 413.599 391.638 415.103 391.667 416.61C391.648 418.117 391.836 419.619 392.225 421.074Z" fill="black"/>
<path opacity="0.1" d="M394.1 421.074C394.844 418.145 394.844 415.075 394.1 412.146C393.356 415.075 393.356 418.145 394.1 421.074Z" fill="black"/>
<path opacity="0.1" d="M413.542 421.074C414.286 418.145 414.286 415.075 413.542 412.146C412.798 415.075 412.798 418.145 413.542 421.074Z" fill="black"/>
<path opacity="0.1" d="M416.31 421.074C416.7 419.619 416.887 418.117 416.868 416.61C416.892 415.103 416.704 413.6 416.31 412.146C415.912 413.599 415.724 415.103 415.752 416.61C415.728 418.117 415.916 419.62 416.31 421.074Z" fill="black"/>
<path opacity="0.1" d="M409.524 421.074C410.269 418.145 410.269 415.075 409.524 412.146C408.78 415.075 408.78 418.145 409.524 421.074Z" fill="black"/>
<path opacity="0.1" d="M383.731 421.074C384.475 418.145 384.475 415.075 383.731 412.146C382.987 415.075 382.987 418.145 383.731 421.074Z" fill="black"/>
</g>
<path opacity="0.1" d="M367.96 411.096V413.463L418.442 415.059V411.096H367.96Z" fill="black"/>
<path d="M371.03 399.935H421.523V411.096H371.03V399.935Z" fill="#F31E1E"/>
<g opacity="0.1">
<path opacity="0.1" d="M419.435 400.985C419.046 402.44 418.858 403.942 418.877 405.449C418.854 406.956 419.042 408.459 419.435 409.914C419.834 408.46 420.022 406.956 419.994 405.449C420.018 403.942 419.83 402.439 419.435 400.985Z" fill="black"/>
<path opacity="0.1" d="M415.674 400.984C414.93 403.914 414.93 406.983 415.674 409.913C416.073 408.459 416.261 406.956 416.232 405.449C416.257 403.942 416.069 402.439 415.674 400.984Z" fill="black"/>
<path opacity="0.1" d="M413.844 400.984C413.1 403.914 413.1 406.983 413.844 409.913C414.588 406.983 414.588 403.914 413.844 400.984Z" fill="black"/>
<path opacity="0.1" d="M403.754 400.984C403.01 403.914 403.01 406.983 403.754 409.913C404.153 408.459 404.341 406.956 404.312 405.449C404.336 403.942 404.149 402.439 403.754 400.984Z" fill="black"/>
<path opacity="0.1" d="M401.031 400.984C400.287 403.914 400.287 406.983 401.031 409.913C401.775 406.983 401.775 403.914 401.031 400.984Z" fill="black"/>
<path opacity="0.1" d="M389.747 400.984C389.358 402.44 389.17 403.942 389.189 405.449C389.166 406.955 389.353 408.458 389.747 409.913C390.145 408.459 390.333 406.956 390.305 405.449C390.324 403.942 390.136 402.44 389.747 400.984Z" fill="black"/>
<path opacity="0.1" d="M387.146 400.984C386.402 403.914 386.402 406.983 387.146 409.913C387.875 406.981 387.875 403.916 387.146 400.984Z" fill="black"/>
<path opacity="0.1" d="M382.358 400.984C381.614 403.914 381.614 406.983 382.358 409.913C383.102 406.983 383.102 403.914 382.358 400.984Z" fill="black"/>
<path opacity="0.1" d="M391.923 400.984C391.179 403.914 391.179 406.983 391.923 409.913C392.667 406.983 392.667 403.914 391.923 400.984Z" fill="black"/>
<path opacity="0.1" d="M410.506 400.984C410.117 402.44 409.93 403.942 409.948 405.449C409.92 406.956 410.108 408.459 410.506 409.913C410.9 408.458 411.088 406.955 411.065 405.449C411.083 403.942 410.896 402.44 410.506 400.984Z" fill="black"/>
<path opacity="0.1" d="M397.437 400.984C397.048 402.44 396.86 403.942 396.879 405.449C396.856 406.955 397.044 408.458 397.437 409.913C397.836 408.459 398.023 406.956 397.995 405.449C398.019 403.942 397.831 402.439 397.437 400.984Z" fill="black"/>
<path opacity="0.1" d="M395.562 400.984C394.818 403.914 394.818 406.983 395.562 409.913C396.306 406.983 396.306 403.914 395.562 400.984Z" fill="black"/>
<path opacity="0.1" d="M376.13 400.984C375.736 402.439 375.548 403.942 375.572 405.449C375.544 406.956 375.731 408.459 376.13 409.913C376.874 406.983 376.874 403.914 376.13 400.984Z" fill="black"/>
<path opacity="0.1" d="M373.295 400.984C372.551 403.914 372.551 406.983 373.295 409.913C373.694 408.459 373.882 406.956 373.853 405.449C373.878 403.942 373.69 402.439 373.295 400.984Z" fill="black"/>
<path opacity="0.1" d="M380.137 400.984C379.393 403.914 379.393 406.983 380.137 409.913C380.881 406.983 380.881 403.914 380.137 400.984Z" fill="black"/>
<path opacity="0.1" d="M405.93 400.984C405.186 403.914 405.186 406.983 405.93 409.913C406.674 406.983 406.674 403.914 405.93 400.984Z" fill="black"/>
</g>
<path opacity="0.1" d="M371.03 399.935V402.313L421.523 403.897V399.935H371.03Z" fill="black"/>
<path d="M371.03 433.407H421.523V444.569H371.03V433.407Z" fill="#F31E1E"/>
<g opacity="0.1">
<path opacity="0.1" d="M373.295 443.397C374.041 440.467 374.041 437.397 373.295 434.468C372.549 437.397 372.549 440.467 373.295 443.397Z" fill="black"/>
<path opacity="0.1" d="M377.057 443.397C377.451 441.942 377.639 440.439 377.615 438.932C377.645 437.425 377.457 435.921 377.057 434.468C376.662 435.922 376.474 437.425 376.499 438.932C376.48 440.439 376.667 441.941 377.057 443.397Z" fill="black"/>
<path opacity="0.1" d="M378.898 443.397C379.644 440.467 379.644 437.397 378.898 434.468C378.152 437.397 378.152 440.467 378.898 443.397Z" fill="black"/>
<path opacity="0.1" d="M388.977 443.397C389.371 441.942 389.559 440.439 389.535 438.932C389.565 437.425 389.377 435.921 388.977 434.468C388.231 437.397 388.231 440.467 388.977 443.397Z" fill="black"/>
<path opacity="0.1" d="M391.756 443.397C392.502 440.467 392.502 437.397 391.756 434.468C391.01 437.397 391.01 440.467 391.756 443.397Z" fill="black"/>
<path opacity="0.1" d="M402.984 443.397C403.73 440.467 403.73 437.397 402.984 434.468C402.238 437.397 402.238 440.467 402.984 443.397Z" fill="black"/>
<path opacity="0.1" d="M405.596 443.397C406.342 440.467 406.342 437.397 405.596 434.468C405.195 435.921 405.007 437.425 405.037 438.932C405.013 440.439 405.201 441.942 405.596 443.397Z" fill="black"/>
<path opacity="0.1" d="M410.384 443.397C411.13 440.467 411.13 437.397 410.384 434.468C409.638 437.397 409.638 440.467 410.384 443.397Z" fill="black"/>
<path opacity="0.1" d="M400.807 443.397C401.197 441.941 401.384 440.439 401.365 438.932C401.396 437.425 401.208 435.921 400.807 434.468C400.412 435.922 400.225 437.425 400.249 438.932C400.23 440.439 400.418 441.941 400.807 443.397Z" fill="black"/>
<path opacity="0.1" d="M382.224 443.397C382.97 440.467 382.97 437.397 382.224 434.468C381.478 437.397 381.478 440.467 382.224 443.397Z" fill="black"/>
<path opacity="0.1" d="M395.294 443.397C395.688 441.942 395.876 440.439 395.852 438.932C395.882 437.425 395.694 435.921 395.294 434.468C394.548 437.397 394.548 440.467 395.294 443.397Z" fill="black"/>
<path opacity="0.1" d="M397.18 443.397C397.926 440.467 397.926 437.397 397.18 434.468C396.434 437.397 396.434 440.467 397.18 443.397Z" fill="black"/>
<path opacity="0.1" d="M416.612 443.397C417.358 440.467 417.358 437.397 416.612 434.468C415.866 437.397 415.866 440.467 416.612 443.397Z" fill="black"/>
<path opacity="0.1" d="M419.435 443.397C419.83 441.943 420.018 440.44 419.994 438.933C420.024 437.425 419.836 435.922 419.435 434.468C419.04 435.923 418.853 437.426 418.877 438.933C418.859 440.439 419.046 441.942 419.435 443.397Z" fill="black"/>
<path opacity="0.1" d="M412.605 443.397C413.351 440.467 413.351 437.397 412.605 434.468C411.859 437.397 411.859 440.467 412.605 443.397Z" fill="black"/>
<path opacity="0.1" d="M386.8 443.397C387.189 441.941 387.377 440.439 387.358 438.932C387.383 437.425 387.195 435.922 386.8 434.468C386.4 435.921 386.212 437.425 386.242 438.932C386.223 440.439 386.411 441.941 386.8 443.397Z" fill="black"/>
</g>
<path opacity="0.1" d="M371.03 433.407V435.774L421.523 437.37V433.407H371.03Z" fill="black"/>
<path d="M320.537 467.761H371.03V478.922H320.537V467.761Z" fill="#F31E1E"/>
<g opacity="0.1">
<path opacity="0.1" d="M368.942 468.789C368.197 471.718 368.197 474.788 368.942 477.718C369.688 474.788 369.688 471.718 368.942 468.789Z" fill="black"/>
<path opacity="0.1" d="M365.181 468.788C364.435 471.718 364.435 474.788 365.181 477.717C365.927 474.788 365.927 471.718 365.181 468.788Z" fill="black"/>
<path opacity="0.1" d="M363.351 468.788C362.956 470.243 362.768 471.746 362.793 473.253C362.762 474.76 362.95 476.264 363.351 477.717C364.097 474.788 364.097 471.718 363.351 468.788Z" fill="black"/>
<path opacity="0.1" d="M353.261 468.788C352.515 471.718 352.515 474.788 353.261 477.717C354.007 474.788 354.007 471.718 353.261 468.788Z" fill="black"/>
<path opacity="0.1" d="M350.538 468.788C350.143 470.243 349.955 471.746 349.98 473.253C349.949 474.76 350.137 476.264 350.538 477.717C350.932 476.263 351.12 474.76 351.096 473.253C351.115 471.746 350.927 470.244 350.538 468.788Z" fill="black"/>
<path opacity="0.1" d="M339.298 468.788C338.552 471.718 338.552 474.788 339.298 477.717C340.044 474.788 340.044 471.718 339.298 468.788Z" fill="black"/>
<path opacity="0.1" d="M336.653 468.788C335.907 471.718 335.907 474.788 336.653 477.717C337.399 474.788 337.399 471.718 336.653 468.788Z" fill="black"/>
<path opacity="0.1" d="M331.865 468.788C331.476 470.244 331.288 471.746 331.307 473.253C331.277 474.76 331.465 476.264 331.865 477.717C332.26 476.263 332.448 474.76 332.423 473.253C332.442 471.746 332.255 470.244 331.865 468.788Z" fill="black"/>
<path opacity="0.1" d="M341.43 468.788C340.699 471.72 340.699 474.786 341.43 477.717C342.176 474.788 342.176 471.718 341.43 468.788Z" fill="black"/>
<path opacity="0.1" d="M360.013 468.788C359.268 471.718 359.268 474.788 360.013 477.717C360.414 476.264 360.602 474.76 360.572 473.253C360.596 471.746 360.408 470.243 360.013 468.788Z" fill="black"/>
<path opacity="0.1" d="M346.944 468.788C346.198 471.718 346.198 474.788 346.944 477.717C347.69 474.788 347.69 471.718 346.944 468.788Z" fill="black"/>
<path opacity="0.1" d="M345.069 468.788C344.674 470.243 344.486 471.746 344.511 473.253C344.48 474.76 344.668 476.264 345.069 477.717C345.463 476.263 345.651 474.76 345.627 473.253C345.646 471.746 345.458 470.244 345.069 468.788Z" fill="black"/>
<path opacity="0.1" d="M325.626 468.788C325.237 470.244 325.049 471.746 325.068 473.253C325.044 474.76 325.231 476.263 325.626 477.717C326.026 476.264 326.214 474.76 326.184 473.253C326.209 471.746 326.021 470.243 325.626 468.788Z" fill="black"/>
<path opacity="0.1" d="M322.802 468.788C322.056 471.718 322.056 474.788 322.802 477.717C323.548 474.788 323.548 471.718 322.802 468.788Z" fill="black"/>
<path opacity="0.1" d="M329.644 468.788C329.249 470.243 329.061 471.746 329.086 473.253C329.056 474.76 329.244 476.264 329.644 477.717C330.039 476.263 330.226 474.76 330.202 473.253C330.221 471.746 330.034 470.244 329.644 468.788Z" fill="black"/>
<path opacity="0.1" d="M355.449 468.788C354.703 471.718 354.703 474.788 355.449 477.717C356.195 474.788 356.195 471.718 355.449 468.788Z" fill="black"/>
</g>
<path opacity="0.1" d="M320.537 467.761V470.127L371.03 471.723V467.761H320.537Z" fill="black"/>
<path d="M312.076 456.6H362.569V467.761H312.076V456.6Z" fill="#F31E1E"/>
<g opacity="0.1">
<path opacity="0.1" d="M360.505 457.628C359.761 460.557 359.761 463.627 360.505 466.557C361.249 463.627 361.249 460.557 360.505 457.628Z" fill="black"/>
<path opacity="0.1" d="M356.732 457.627C355.988 460.557 355.988 463.626 356.732 466.556C357.476 463.626 357.476 460.557 356.732 457.627Z" fill="black"/>
<path opacity="0.1" d="M354.924 457.627C354.18 460.557 354.18 463.626 354.924 466.556C355.323 465.102 355.511 463.599 355.482 462.091C355.506 460.584 355.318 459.082 354.924 457.627Z" fill="black"/>
<path opacity="0.1" d="M344.812 457.627C344.068 460.557 344.068 463.626 344.812 466.556C345.556 463.626 345.556 460.557 344.812 457.627Z" fill="black"/>
<path opacity="0.1" d="M342.078 457.627C341.334 460.557 341.334 463.626 342.078 466.556C342.822 463.626 342.822 460.557 342.078 457.627Z" fill="black"/>
<path opacity="0.1" d="M330.805 457.627C330.061 460.557 330.061 463.626 330.805 466.556C331.549 463.626 331.549 460.557 330.805 457.627Z" fill="black"/>
<path opacity="0.1" d="M328.137 457.627C327.749 459.083 327.561 460.585 327.579 462.091C327.556 463.598 327.743 465.101 328.137 466.556C328.537 465.102 328.725 463.599 328.695 462.091C328.719 460.584 328.531 459.082 328.137 457.627Z" fill="black"/>
<path opacity="0.1" d="M323.405 457.627C322.661 460.557 322.661 463.626 323.405 466.556C324.149 463.626 324.149 460.557 323.405 457.627Z" fill="black"/>
<path opacity="0.1" d="M332.981 457.627C332.587 459.082 332.399 460.584 332.423 462.091C332.394 463.599 332.582 465.102 332.981 466.556C333.725 463.626 333.725 460.557 332.981 457.627Z" fill="black"/>
<path opacity="0.1" d="M351.576 457.627C350.832 460.557 350.832 463.626 351.576 466.556C352.32 463.626 352.32 460.557 351.576 457.627Z" fill="black"/>
<path opacity="0.1" d="M338.495 457.627C337.751 460.557 337.751 463.626 338.495 466.556C339.239 463.626 339.239 460.557 338.495 457.627Z" fill="black"/>
<path opacity="0.1" d="M336.609 457.627C335.865 460.557 335.865 463.626 336.609 466.556C337.353 463.626 337.353 460.557 336.609 457.627Z" fill="black"/>
<path opacity="0.1" d="M317.166 457.627C316.422 460.557 316.422 463.626 317.166 466.556C317.91 463.626 317.91 460.557 317.166 457.627Z" fill="black"/>
<path opacity="0.1" d="M314.353 457.627C313.609 460.557 313.609 463.626 314.353 466.556C315.097 463.626 315.097 460.557 314.353 457.627Z" fill="black"/>
<path opacity="0.1" d="M321.184 457.627C320.44 460.557 320.44 463.626 321.184 466.556C321.928 463.626 321.928 460.557 321.184 457.627Z" fill="black"/>
<path opacity="0.1" d="M346.989 457.627C346.595 459.082 346.407 460.584 346.43 462.091C346.401 463.599 346.589 465.102 346.989 466.556C347.383 465.101 347.57 463.598 347.547 462.091C347.565 460.585 347.377 459.083 346.989 457.627Z" fill="black"/>
</g>
<path opacity="0.1" d="M312.088 456.6V458.977L362.569 460.573V456.6H312.088Z" fill="black"/>
<path d="M316.307 445.54H366.8V456.701H316.307V445.54Z" fill="#F31E1E"/>
<g opacity="0.1">
<path opacity="0.1" d="M318.572 455.484C319.318 452.555 319.318 449.485 318.572 446.555C317.826 449.485 317.826 452.555 318.572 455.484Z" fill="black"/>
<path opacity="0.1" d="M322.334 455.484C322.729 454.03 322.917 452.527 322.892 451.02C322.922 449.513 322.734 448.009 322.334 446.555C321.588 449.485 321.588 452.555 322.334 455.484Z" fill="black"/>
<path opacity="0.1" d="M324.175 455.484C324.921 452.555 324.921 449.485 324.175 446.555C323.775 448.009 323.587 449.513 323.617 451.02C323.592 452.527 323.78 454.03 324.175 455.484Z" fill="black"/>
<path opacity="0.1" d="M334.254 455.484C335 452.555 335 449.485 334.254 446.555C333.508 449.485 333.508 452.555 334.254 455.484Z" fill="black"/>
<path opacity="0.1" d="M336.988 455.484C337.734 452.555 337.734 449.485 336.988 446.555C336.242 449.485 336.242 452.555 336.988 455.484Z" fill="black"/>
<path opacity="0.1" d="M348.227 455.484C348.973 452.555 348.973 449.485 348.227 446.555C347.481 449.485 347.481 452.555 348.227 455.484Z" fill="black"/>
<path opacity="0.1" d="M350.873 455.484C351.262 454.029 351.45 452.527 351.431 451.02C351.455 449.513 351.267 448.01 350.873 446.555C350.472 448.009 350.284 449.513 350.315 451.02C350.29 452.527 350.478 454.03 350.873 455.484Z" fill="black"/>
<path opacity="0.1" d="M355.661 455.484C356.407 452.555 356.407 449.485 355.661 446.555C354.915 449.485 354.915 452.555 355.661 455.484Z" fill="black"/>
<path opacity="0.1" d="M346.085 455.484C346.48 454.03 346.667 452.527 346.643 451.02C346.673 449.513 346.485 448.009 346.085 446.555C345.69 448.01 345.502 449.513 345.526 451.02C345.507 452.527 345.695 454.029 346.085 455.484Z" fill="black"/>
<path opacity="0.1" d="M327.501 455.484C328.247 452.555 328.247 449.485 327.501 446.555C326.755 449.485 326.755 452.555 327.501 455.484Z" fill="black"/>
<path opacity="0.1" d="M340.571 455.484C341.317 452.555 341.317 449.485 340.571 446.555C339.825 449.485 339.825 452.555 340.571 455.484Z" fill="black"/>
<path opacity="0.1" d="M342.457 455.484C343.203 452.555 343.203 449.485 342.457 446.555C341.711 449.485 341.711 452.555 342.457 455.484Z" fill="black"/>
<path opacity="0.1" d="M361.9 455.484C362.646 452.555 362.646 449.485 361.9 446.555C361.154 449.485 361.154 452.555 361.9 455.484Z" fill="black"/>
<path opacity="0.1" d="M364.712 455.484C365.107 454.03 365.295 452.527 365.271 451.02C365.301 449.513 365.113 448.009 364.712 446.555C363.966 449.485 363.966 452.555 364.712 455.484Z" fill="black"/>
<path opacity="0.1" d="M357.882 455.484C358.628 452.555 358.628 449.485 357.882 446.555C357.136 449.485 357.136 452.555 357.882 455.484Z" fill="black"/>
<path opacity="0.1" d="M332.077 455.484C332.467 454.029 332.655 452.527 332.635 451.02C332.666 449.513 332.478 448.009 332.077 446.555C331.683 448.01 331.495 449.513 331.519 451.02C331.5 452.527 331.688 454.029 332.077 455.484Z" fill="black"/>
</g>
<path opacity="0.1" d="M316.307 445.54V447.917L366.8 449.502V445.54H316.307Z" fill="black"/>
<path d="M425.73 427.86C392.493 433.82 401.276 483.052 434.559 477.081C467.841 471.11 459.024 421.889 425.73 427.86Z" fill="#F31E1E"/>
<path opacity="0.1" d="M425.73 427.86C392.493 433.82 401.276 483.052 434.559 477.081C467.841 471.11 459.024 421.889 425.73 427.86Z" fill="black"/>
<path d="M428.855 427.302C397.18 432.983 405.953 482.215 437.684 476.523C469.415 470.831 460.575 421.61 428.855 427.302Z" fill="#F31E1E"/>
<path opacity="0.1" d="M453.354 453.073C453.187 461.835 448.075 470.34 436.925 472.337C410.607 477.059 403.308 436.198 429.603 431.488L430.117 431.398C405.462 436.332 412.527 475.005 437.628 470.462C447.874 468.665 452.807 461.087 453.354 453.073Z" fill="black"/>
<g opacity="0.1">
<path opacity="0.1" d="M430.53 436.588C430.316 436.646 430.134 436.784 430.019 436.973C429.905 437.162 429.868 437.388 429.916 437.604L430.262 438.932C428.105 439.643 426.215 440.989 424.838 442.794C424.718 442.906 424.629 443.047 424.58 443.204C424.531 443.36 424.524 443.527 424.558 443.687C424.586 443.804 424.638 443.913 424.711 444.009C424.783 444.105 424.875 444.185 424.98 444.244C425.085 444.302 425.2 444.339 425.32 444.35C425.44 444.362 425.56 444.349 425.675 444.312C425.79 444.291 425.9 444.245 425.996 444.178C426.093 444.11 426.173 444.023 426.233 443.921C427.353 442.362 428.905 441.163 430.697 440.472L433.052 449.948C428.186 452.303 426.501 454.77 427.326 458.085C428.219 461.667 431.858 463.453 436.121 462.549L436.78 465.183C436.833 465.397 436.968 465.582 437.156 465.697C437.344 465.811 437.57 465.848 437.784 465.797C437.999 465.742 438.184 465.604 438.299 465.414C438.413 465.225 438.449 464.997 438.398 464.781L437.729 462.114C440.504 461.197 442.893 459.378 444.515 456.946C444.637 456.806 444.712 456.631 444.729 456.445C444.745 456.26 444.703 456.074 444.608 455.914C444.512 455.755 444.369 455.629 444.198 455.556C444.027 455.483 443.837 455.465 443.655 455.506C443.542 455.53 443.435 455.577 443.341 455.645C443.247 455.712 443.168 455.798 443.108 455.897C441.757 458.083 439.703 459.744 437.282 460.607L434.883 450.986C439.671 448.609 441.3 446.22 440.463 442.85C439.626 439.479 435.999 437.571 431.836 438.508L431.523 437.213C431.47 437.001 431.337 436.818 431.152 436.701C430.967 436.585 430.744 436.544 430.53 436.588ZM434.47 449.234L432.17 440.048C435.519 439.301 438.119 440.718 438.722 443.151C439.325 445.584 438.566 447.102 434.47 449.234ZM433.499 451.667L435.831 460.998C432.483 461.768 429.748 460.362 429.135 457.795C428.532 455.462 429.358 453.743 433.499 451.667Z" fill="black"/>
</g>
</svg>
